<?xml version="1.0" encoding="UTF-8"?>
<!DOCTYPE svg PUBLIC "-//W3C//DTD SVG 1.1//EN" "http://www.w3.org/Graphics/SVG/1.1/DTD/svg11.dtd">
<!-- Creator: CorelDRAW X8 -->
<svg xmlns="http://www.w3.org/2000/svg" xml:space="preserve" width="7.10523in" height="6.64271in" version="1.1" style="shape-rendering:geometricPrecision; text-rendering:geometricPrecision; image-rendering:optimizeQuality; fill-rule:evenodd; clip-rule:evenodd"
viewBox="0 0 7331 6854"
 xmlns:xlink="http://www.w3.org/1999/xlink">
 <defs>
  <style type="text/css">
   <![CDATA[
    .fil11 {fill:none;fill-rule:nonzero}
    .fil30 {fill:#C9E9F1}
    .fil31 {fill:white}
    .fil20 {fill:#C7DDE1;fill-rule:nonzero;fill-opacity:0.250980}
    .fil1 {fill:#C7DDE1;fill-rule:nonzero;fill-opacity:0.321569}
    .fil14 {fill:#ECF1F4;fill-rule:nonzero;fill-opacity:0.349020}
    .fil3 {fill:#DFEFF2;fill-rule:nonzero;fill-opacity:0.349020}
    .fil27 {fill:#FEFEFE;fill-opacity:0.501961}
    .fil29 {fill:#FEFEFE;fill-opacity:0.501961}
    .fil28 {fill:#C9E9F1;fill-opacity:0.501961}
    .fil26 {fill:#C9E9F1;fill-opacity:0.501961}
    .fil15 {fill:white;fill-opacity:0.501961}
    .fil18 {fill:#FEFEFE;fill-rule:nonzero;fill-opacity:0.501961}
    .fil9 {fill:#FEFEFE;fill-rule:nonzero;fill-opacity:0.501961}
    .fil23 {fill:#F2F3F2;fill-rule:nonzero;fill-opacity:0.501961}
    .fil21 {fill:#E8E7E8;fill-rule:nonzero;fill-opacity:0.501961}
    .fil13 {fill:#E2E7EA;fill-rule:nonzero;fill-opacity:0.501961}
    .fil4 {fill:#DFEFF2;fill-rule:nonzero;fill-opacity:0.501961}
    .fil6 {fill:#DFEFF2;fill-rule:nonzero;fill-opacity:0.501961}
    .fil2 {fill:#C9E9F1;fill-rule:nonzero;fill-opacity:0.501961}
    .fil25 {fill:#C9E9F1;fill-rule:nonzero;fill-opacity:0.501961}
    .fil5 {fill:#C7DDE1;fill-rule:nonzero;fill-opacity:0.501961}
    .fil16 {fill:#A5D4DB;fill-rule:nonzero;fill-opacity:0.501961}
    .fil24 {fill:#A9ACAF;fill-rule:nonzero;fill-opacity:0.501961}
    .fil0 {fill:#A4C3C8;fill-rule:nonzero;fill-opacity:0.501961}
    .fil22 {fill:#98C4CD;fill-rule:nonzero;fill-opacity:0.501961}
    .fil17 {fill:#84ABB3;fill-rule:nonzero;fill-opacity:0.501961}
    .fil19 {fill:#59C3B6;fill-rule:nonzero;fill-opacity:0.501961}
    .fil7 {fill:#15B4CB;fill-rule:nonzero;fill-opacity:0.501961}
    .fil8 {fill:url(#id0);fill-opacity:0.501961}
    .fil10 {fill:url(#id1);fill-opacity:0.501961}
    .fil12 {fill:url(#id2);fill-opacity:0.501961}
   ]]>
  </style>
  <radialGradient id="id0" gradientUnits="userSpaceOnUse" gradientTransform="matrix(29.1164 -0 -0 -29.1166 -99942 115736)" cx="3554.57" cy="3842.94" r="286.943" fx="3554.57" fy="3842.94">
   <stop offset="0" style="stop-opacity:1; stop-color:#F7FBFE"/>
   <stop offset="1" style="stop-opacity:1; stop-color:#CAE5E6"/>
  </radialGradient>
  <radialGradient id="id1" gradientUnits="userSpaceOnUse" gradientTransform="matrix(28.862 -0 -0 -28.862 -99033 114778)" xlink:href="#id0" cx="3554.39" cy="3843.6" r="289.474" fx="3554.39" fy="3843.6">
  </radialGradient>
  <radialGradient id="id2" gradientUnits="userSpaceOnUse" gradientTransform="matrix(28.862 -0 -0 -28.8618 -99033 114768)" xlink:href="#id0" cx="3554.39" cy="3843.29" r="289.474" fx="3554.39" fy="3843.29">
  </radialGradient>
 </defs>
 <g id="Layer_x0020_1">
  <metadata id="CorelCorpID_0Corel-Layer"/>
  <path class="fil0" d="M5112 857c6,4 12,8 18,13l8 -12c-6,-4 -12,-8 -17,-13l-9 12z"/>
  <path class="fil0" d="M5164 895c11,9 23,18 34,26l9 -11c-12,-9 -23,-17 -34,-26l-9 11zm67 53c12,9 23,18 34,27l9 -11c-11,-9 -22,-18 -34,-27l-9 11zm66 55c11,9 22,19 33,28l9 -11c-10,-9 -21,-19 -32,-28l-10 11zm65 57c11,9 21,19 32,29l10 -11c-11,-9 -22,-19 -32,-29l-10 11 0 0zm63 59c10,9 21,19 31,30l10 -11c-10,-10 -21,-20 -31,-30l-10 11zm61 60c10,10 20,21 30,31l10 -10c-10,-10 -20,-21 -30,-31l-10 10zm59 62c10,11 20,22 29,32l11 -9c-10,-11 -19,-22 -29,-32l-11 9 0 0zm58 64c9,11 18,22 28,33l11 -9c-10,-11 -19,-22 -28,-33l-11 9 0 0zm55 66c9,11 18,22 27,34l11 -9c-9,-12 -18,-23 -27,-34l-11 9zm54 67c8,12 17,23 26,35l11 -9c-9,-11 -17,-23 -26,-34l-11 8zm51 69c8,12 17,24 25,35l12 -8c-9,-12 -17,-23 -25,-35l-12 8zm49 71c8,12 16,23 24,35l12 -7c-8,-13 -16,-24 -24,-36l-12 8zm48 71c7,13 15,25 22,37l13 -8c-8,-12 -16,-24 -23,-36l-12 7zm45 74c7,12 14,24 21,37l13 -8c-7,-12 -15,-24 -22,-37l-12 8zm43 74c7,12 13,25 20,38l13 -7c-7,-13 -14,-25 -21,-38l-12 7zm40 76c7,12 13,25 20,38l13 -7c-7,-12 -13,-25 -20,-38l-13 7zm39 76c6,13 12,26 18,39l13 -6c-6,-13 -12,-26 -18,-39l-13 6zm36 78c6,13 12,26 17,39l13 -5c-5,-13 -11,-27 -17,-40l-13 6zm34 79c5,13 11,27 16,40l13 -5c-5,-14 -10,-27 -16,-40l-13 5zm31 80c5,13 10,27 15,40l14 -5c-5,-13 -10,-27 -15,-40l-14 5zm30 81c4,13 9,27 13,40l14 -4c-5,-14 -9,-28 -14,-41l-13 5zm26 81c5,14 9,27 13,41l14 -4c-5,-14 -9,-27 -13,-41l-14 4zm25 82c4,14 7,28 11,42l14 -4c-4,-14 -8,-28 -11,-42l-14 4zm22 83c3,14 7,28 10,42l14 -3c-4,-14 -7,-28 -10,-42l-14 3zm19 84c3,14 6,28 9,42l14 -3c-3,-14 -6,-28 -9,-42l-14 3 0 0zm17 84c3,14 6,28 8,42l14 -2c-2,-15 -5,-29 -8,-43l-14 3 0 0zm15 84c2,14 4,29 6,43l15 -2c-2,-15 -5,-29 -7,-43l-14 2zm12 85c2,14 4,29 5,43l15 -2c-2,-14 -4,-28 -6,-43l-14 2zm10 85c1,15 3,29 4,43l14 -1c-1,-14 -2,-29 -4,-43l-14 1zm7 86c1,14 2,28 3,43l14 -1c-1,-15 -2,-29 -3,-43l-14 1zm5 85c0,15 1,29 1,43l15 0c-1,-15 -1,-29 -2,-43l-14 0zm2 86c0,11 0,22 0,32 0,4 0,7 0,11l15 0c0,-4 0,-7 0,-11 0,-10 -1,-21 -1,-32l-14 0 0 0zm0 86c-1,14 -1,28 -1,43l14 0c0,-14 1,-29 1,-43l-14 0zm-3 86c-1,14 -2,28 -2,42l14 1c1,-14 2,-28 2,-43l-14 0zm-5 85c-2,14 -3,29 -4,43l14 1c2,-14 3,-29 4,-43l-14 -1 0 0zm-8 85c-2,15 -3,29 -5,43l14 2c2,-15 3,-29 5,-43l-14 -2zm-11 86c-2,14 -4,28 -6,42l14 2c3,-14 5,-28 7,-43l-15 -1zm-13 84c-2,14 -4,28 -7,42l14 3c3,-14 5,-28 8,-42l-15 -3zm-15 85c-3,14 -6,28 -8,42l14 3c3,-15 5,-29 8,-43l-14 -2 0 0zm-18 83c-3,14 -6,28 -10,42l14 3c4,-13 7,-27 10,-41l-14 -4zm-20 84c-4,13 -7,27 -11,41l14 4c4,-14 7,-28 11,-42l-14 -3zm-23 82c-4,14 -8,28 -12,41l14 4c4,-13 8,-27 12,-41l-14 -4 0 0zm-25 82c-4,14 -9,27 -13,41l13 4c5,-13 9,-27 14,-41l-14 -4 0 0zm-28 81c-4,14 -9,27 -14,40l13 5c5,-13 10,-27 15,-40l-14 -5 0 0zm-29 80c-6,14 -11,27 -16,40l13 6c5,-14 11,-27 16,-40l-13 -6zm-33 80c-5,13 -11,26 -17,39l13 6c6,-13 12,-27 17,-40l-13 -5zm-34 78c-6,13 -12,26 -19,39l13 6c7,-13 13,-26 19,-39l-13 -6zm-37 77c-7,13 -13,26 -20,38l13 7c7,-13 13,-26 20,-38l-13 -7 0 0zm-39 76c-7,13 -14,25 -21,38l13 7c7,-13 14,-25 20,-38l-12 -7 0 0zm-42 75c-7,13 -14,25 -21,37l12 8c7,-13 15,-25 22,-38l-13 -7zm-43 74c-8,12 -15,24 -23,36l12 8c8,-12 16,-24 23,-37l-12 -7zm-46 72c-1,2 -2,4 -4,6 -6,10 -13,20 -19,30l11 8c7,-10 14,-20 20,-30 2,-2 3,-4 4,-6l-12 -8 0 0zm-48 72c-8,11 -16,23 -24,35l11 8c9,-12 17,-23 25,-35l-12 -8 0 0zm-49 70c-9,11 -17,23 -26,34l11 9c9,-12 18,-23 26,-35l-11 -8zm-52 68c-9,11 -18,22 -27,33l11 9c9,-11 18,-22 27,-33l-11 -9zm-54 67c-9,11 -18,22 -28,33l11 9c10,-11 19,-22 28,-33l-11 -9zm-56 65c-9,11 -19,21 -28,32l10 10c10,-11 19,-22 29,-33l-11 -9zm-57 64c-10,10 -20,20 -30,31l10 10c10,-11 20,-21 30,-32l-10 -9zm-60 62c-10,10 -20,20 -31,30l10 10c11,-10 21,-20 31,-30l-10 -10zm-62 60c-10,10 -20,20 -31,29l10 11c10,-10 21,-20 31,-30l-10 -10zm-63 58c-10,10 -21,19 -32,29l9 10c11,-9 22,-19 33,-28l-10 -11 0 0zm-65 57c-11,9 -22,18 -33,27l9 11c11,-9 23,-18 34,-27l-10 -11zm-66 54c-11,9 -23,18 -34,27l9 11c11,-9 22,-18 34,-27l-9 -11zm-68 53c-12,8 -23,17 -35,25l8 12c12,-9 24,-17 35,-26l-8 -11zm-70 50c-12,8 -23,16 -35,24l8 12c12,-8 24,-16 35,-24l-8 -12zm-71 48c-12,8 -24,16 -36,24l8 12c12,-8 24,-16 36,-24l-8 -12zm-72 47c-13,7 -25,14 -37,22l7 12c13,-7 25,-15 37,-22l-7 -12zm-74 44c-13,7 -25,14 -38,21l7 12c13,-7 25,-14 38,-21l-7 -12 0 0zm-75 41c-13,7 -25,14 -38,20l6 13c13,-6 26,-13 39,-20l-7 -13zm-76 40c-13,6 -26,13 -39,19l6 13c13,-6 26,-13 39,-19l-6 -13 0 0zm-78 37c-13,6 -26,12 -39,18l6 13c13,-6 26,-12 39,-18l-6 -13 0 0zm-78 35c-13,6 -26,11 -40,17l6 13c13,-5 26,-11 40,-17l-6 -13zm-79 33c-14,5 -27,10 -40,15l5 14c13,-5 26,-10 40,-16l-5 -13zm-81 30c-13,5 -27,10 -40,15l4 13c14,-4 28,-9 41,-14l-5 -14zm-81 28c-13,5 -27,9 -41,14l5 13c13,-4 27,-8 41,-13l-5 -14zm-82 26c-13,4 -27,8 -41,12l4 14c14,-4 28,-8 41,-12l-4 -14zm-82 23c-14,4 -28,7 -42,11l4 14c14,-4 27,-7 41,-11l-3 -14zm-84 21c-13,3 -27,6 -41,10l3 14c14,-4 28,-7 42,-10l-4 -14zm-83 18c-14,3 -28,6 -42,9l2 14c14,-3 28,-6 43,-9l-3 -14 0 0zm-85 16c-14,3 -28,5 -42,7l2 14c15,-2 29,-4 43,-7l-3 -14zm-84 14c-14,2 -29,4 -43,6l2 14c14,-2 29,-4 43,-6l-2 -14zm-85 11c-15,1 -29,3 -43,4l1 14c15,-1 29,-2 43,-4l-1 -14 0 0zm-86 8c-14,1 -28,2 -42,3l1 15c14,-1 28,-2 43,-4l-2 -14zm-85 6c-14,1 -29,2 -43,2l1 14c14,0 28,-1 43,-2l-1 -14zm-86 4c-14,0 -28,0 -43,0l1 15c14,0 28,-1 43,-1l-1 -14 0 0zm-86 1c-14,-1 -28,-1 -42,-1l-1 14c15,1 29,1 43,1l0 -14zm-85 -2c-15,0 -29,-1 -43,-2l-1 15c15,0 29,1 43,1l1 -14zm-86 -4c-14,-1 -28,-2 -43,-3l-1 14c15,1 29,2 43,3l1 -14zm-85 -7c-15,-1 -29,-2 -43,-4l-2 14c15,2 29,3 43,5l2 -15zm-86 -9c-14,-1 -28,-3 -42,-5l-2 14c14,2 28,4 43,5l1 -14zm-84 -11c-15,-2 -29,-5 -43,-7l-2 14c14,2 28,5 42,7l3 -14zm-85 -14c-14,-3 -28,-6 -42,-8l-3 14c14,2 28,5 42,8l3 -14zm-84 -17c-14,-3 -28,-6 -42,-9l-3 14c14,3 28,6 42,9l3 -14 0 0zm-84 -19c-13,-3 -27,-7 -41,-11l-4 14c14,4 28,7 42,11l3 -14zm-83 -22c-13,-3 -27,-7 -41,-11l-4 14c14,4 28,7 42,11l3 -14zm-82 -24c-13,-4 -27,-8 -41,-12l-4 13c14,5 27,9 41,13l4 -14zm-81 -26c-14,-4 -27,-9 -41,-14l-5 14c14,4 28,9 41,14l5 -14zm-81 -29c-13,-5 -27,-10 -40,-15l-5 13c13,6 27,11 40,16l5 -14 0 0zm-80 -31c-13,-5 -26,-11 -39,-16l-6 13c13,6 27,11 40,16l5 -13zm-79 -33c-13,-6 -26,-12 -39,-18l-6 13c13,6 27,12 40,18l5 -13zm-77 -36c-13,-6 -26,-12 -39,-19l-6 13c13,7 26,13 38,19l7 -13zm-77 -38c-13,-6 -25,-13 -38,-20l-7 13c13,7 26,13 38,20l7 -13zm-76 -40c-12,-7 -24,-14 -37,-21l-7 12c12,7 25,14 38,21l6 -12zm-74 -43c-12,-7 -24,-14 -37,-22l-7 13c12,7 24,14 37,22l7 -13zm-73 -44c-12,-8 -24,-15 -36,-23l-8 12c12,8 24,15 36,23l8 -12zm-72 -47c-12,-8 -24,-16 -35,-24l-9 12c12,8 24,16 36,24l8 -12zm-70 -49c-12,-8 -24,-16 -35,-25l-9 12c12,8 24,17 35,25l9 -12zm-70 -50c-11,-9 -22,-18 -34,-27l-8 12c11,9 22,17 34,26l8 -11zm-67 -53c-11,-9 -22,-18 -33,-27l-10 11c12,9 23,18 34,27l9 -11zm-66 -55c-11,-9 -22,-19 -33,-28l-9 11c11,9 22,19 32,28l10 -11zm-65 -57c-10,-9 -21,-19 -31,-29l-10 11c10,10 21,19 32,29l9 -11zm-63 -58c-10,-10 -20,-20 -30,-30l-10 10c10,10 20,20 31,30l9 -10zm-61 -61c-10,-10 -20,-21 -30,-31l-10 10c10,10 20,21 30,31l10 -10zm-59 -62c-10,-11 -19,-21 -29,-32l-11 9c10,11 20,22 30,32l10 -9zm-57 -64c-10,-11 -19,-22 -28,-33l-11 9c9,11 18,22 28,33l11 -9 0 0zm-56 -66c-9,-11 -18,-22 -27,-33l-11 8c9,12 18,23 27,34l11 -9zm-53 -67c-9,-12 -18,-23 -26,-35l-12 9c9,12 17,23 26,34l12 -8zm-52 -69c-8,-12 -17,-23 -25,-35l-12 8c9,12 17,24 26,35l11 -8zm-49 -71c-8,-11 -16,-23 -24,-35l-12 8c8,12 16,24 24,36l12 -9zm-47 -71c-8,-12 -16,-24 -23,-37l-13 8c8,12 16,24 23,36l13 -7 0 0zm-46 -73c-7,-13 -14,-25 -21,-37l-13 7c7,12 15,25 22,37l12 -7zm-43 -75c-7,-12 -13,-25 -20,-37l-13 6c7,13 14,26 21,38l12 -7zm-40 -75c-7,-13 -13,-26 -20,-39l-13 7c7,13 13,25 20,38l13 -6zm-39 -77c-6,-13 -12,-26 -18,-39l-13 6c6,13 12,26 18,39l13 -6zm-36 -78c-6,-13 -12,-26 -17,-39l-13 5c5,14 11,27 17,40l13 -6zm-34 -79c-5,-13 -11,-26 -16,-40l-13 6c5,13 10,26 16,40l13 -6zm-31 -80c-5,-13 -10,-26 -15,-40l-14 5c5,13 10,27 15,40l14 -5zm-30 -80c-4,-14 -9,-27 -13,-41l-14 4c5,14 9,28 14,41l13 -4zm-26 -82c-5,-13 -9,-27 -13,-41l-14 4c4,14 9,28 13,41l14 -4zm-25 -82c-4,-14 -8,-28 -11,-41l-14 3c4,14 7,28 11,42l14 -4zm-22 -83c-3,-14 -7,-28 -10,-42l-14 4c3,14 7,28 10,41l14 -3 0 0zm-19 -84c-4,-13 -7,-27 -9,-41l-14 2c2,14 5,29 9,43l14 -4zm-18 -84c-2,-14 -5,-28 -7,-42l-14 3c2,14 5,28 7,42l14 -3zm-14 -84c-3,-14 -5,-28 -7,-42l-14 2c2,14 4,28 7,42l14 -2zm-13 -85c-1,-14 -3,-28 -5,-42l-14 1c2,14 3,29 5,43l14 -2zm-9 -85c-2,-14 -3,-29 -4,-43l-14 1c1,15 2,29 4,43l14 -1zm-7 -85c-1,-15 -2,-29 -3,-43l-14 1c0,14 1,28 2,43l15 -1zm-5 -86c-1,-14 -1,-29 -2,-43l-14 0c0,15 1,29 1,44l15 -1zm-2 -86c-1,-11 -1,-22 -1,-33 0,-3 0,-6 0,-10l-14 0c0,3 0,7 0,10 0,11 0,22 0,33l15 0zm0 -86c0,-14 0,-28 1,-42l-14 -1c-1,15 -1,29 -1,43l14 0zm3 -85c0,-14 1,-29 2,-43l-14 -1c-1,14 -2,29 -3,43l15 1zm5 -86c1,-14 2,-28 4,-43l-15 -1c-1,14 -2,29 -3,43l14 1zm8 -85c1,-14 3,-29 5,-43l-15 -1c-1,14 -3,28 -4,42l14 2zm10 -85c2,-14 4,-29 6,-43l-14 -2c-2,14 -4,29 -6,43l14 2zm13 -85c2,-14 5,-28 7,-42l-14 -3c-2,14 -5,29 -7,43l14 2zm15 -84c3,-14 6,-28 9,-42l-14 -3c-3,14 -6,28 -9,42l14 3zm18 -84c3,-14 7,-28 10,-42l-14 -3c-3,14 -7,28 -10,42l14 3zm20 -83c4,-14 8,-28 11,-42l-13 -4c-4,14 -8,28 -12,42l14 4zm23 -83c4,-14 8,-27 12,-41l-13 -4c-5,13 -9,27 -13,41l14 4zm25 -82c5,-13 9,-27 14,-41l-14 -4c-5,13 -9,27 -13,41l13 4zm28 -81c5,-13 9,-27 14,-40l-13 -5c-5,13 -10,27 -15,40l14 5zm30 -80c5,-14 10,-27 16,-40l-14 -5c-5,13 -10,26 -16,40l14 5zm32 -80c6,-13 11,-26 17,-39l-13 -6c-6,13 -12,27 -17,40l13 5zm35 -78c6,-13 12,-26 18,-39l-13 -6c-6,13 -12,26 -18,39l13 6zm36 -77c7,-13 13,-26 20,-38l-13 -7c-7,13 -13,26 -19,38l12 7zm40 -76c6,-13 13,-25 20,-38l-13 -7c-6,13 -13,25 -20,38l13 7zm41 -75c7,-13 14,-25 21,-37l-12 -8c-7,13 -14,25 -22,38l13 7z"/>
  <path class="fil0" d="M901 1703c3,-6 7,-13 11,-19l-12 -7c-4,6 -8,12 -12,18l13 8z"/>
  <polygon class="fil0" points="5083,950 4998,769 5197,786 "/>
  <path class="fil0" d="M969 1724c22,-35 11,-82 -25,-104 -35,-22 -82,-11 -104,25 -22,35 -11,82 25,104 35,21 82,10 104,-25z"/>
  <path class="fil0" d="M1115 4326c-3,-6 -6,-13 -10,-19l-12 6c3,6 6,13 9,19l13 -6z"/>
  <path class="fil0" d="M1087 4268c-6,-14 -11,-27 -17,-40l-13 6c5,13 11,26 17,40l13 -6zm-34 -79c-5,-14 -11,-27 -16,-40l-13 5c5,13 10,27 16,40l13 -5zm-32 -81c-5,-13 -10,-27 -14,-40l-14 5c5,13 10,27 15,40l13 -5zm-28 -81c-5,-13 -9,-27 -14,-41l-13 5c4,13 8,27 13,41l14 -5zm-27 -82c-4,-14 -8,-27 -11,-41l-14 4c4,13 8,27 12,41l13 -4zm-23 -83c-3,-14 -7,-28 -10,-42l-14 4c3,14 7,28 10,42l14 -4zm-20 -84c-3,-14 -6,-28 -9,-42l-14 3c3,14 6,29 9,43l14 -4zm-18 -84c-2,-14 -5,-28 -7,-42l-14 2c2,14 5,29 7,43l14 -3 0 0zm-14 -85c-2,-14 -5,-28 -6,-42l-15 2c2,14 4,28 7,42l14 -2zm-12 -85c-2,-14 -3,-29 -5,-43l-14 2c1,14 3,28 5,43l14 -2zm-9 -86c-1,-14 -2,-28 -3,-43l-14 1c1,15 2,29 3,43l14 -1zm-6 -86c0,-14 -1,-28 -1,-43l-15 1c1,14 1,29 2,43l14 -1zm-2 -86c-1,-14 -1,-28 -1,-42l0 -1 -14 0 0 1c0,14 0,28 0,43l15 -1zm0 -86c0,-14 0,-29 1,-43l-15 0c0,14 -1,28 -1,43l15 0zm2 -86c1,-14 2,-29 3,-43l-14 -1c-1,14 -2,29 -3,43l14 1zm6 -86c2,-14 3,-29 4,-43l-14 -1c-1,14 -3,28 -4,43l14 1zm9 -86c2,-14 4,-28 6,-42l-15 -2c-2,14 -3,28 -5,43l14 1zm12 -85c2,-14 4,-28 7,-42l-14 -3c-3,14 -5,29 -7,43l14 2 0 0zm14 -85c3,-14 6,-28 9,-42l-14 -3c-3,14 -6,28 -9,42l14 3zm18 -84c3,-14 6,-28 10,-42l-14 -3c-4,14 -7,28 -10,42l14 3zm20 -84c4,-14 7,-28 11,-41l-14 -4c-3,14 -7,28 -11,42l14 3zm23 -83c4,-14 8,-27 13,-41l-14 -4c-4,14 -8,27 -13,41l14 4zm26 -82c5,-13 9,-27 14,-41l-14 -4c-4,13 -9,27 -14,41l14 4zm29 -81c5,-13 10,-27 15,-40l-13 -5c-6,13 -11,26 -16,40l14 5zm31 -80c5,-13 11,-27 17,-40l-14 -5c-5,13 -11,26 -16,39l13 6zm34 -79c6,-13 12,-26 18,-39l-13 -6c-6,13 -12,26 -18,39l13 6zm37 -78c6,-13 12,-26 19,-38l-13 -7c-6,13 -13,26 -19,39l13 6zm39 -77c7,-12 13,-25 20,-37l-12 -7c-7,12 -14,25 -21,38l13 6zm42 -75c7,-12 14,-24 21,-37l-12 -7c-7,12 -15,25 -22,37l13 7zm44 -73c8,-12 15,-25 23,-37l-12 -7c-8,12 -16,24 -23,36l12 8zm47 -72c8,-12 16,-24 24,-36l-12 -8c-8,12 -16,24 -24,36l12 8zm49 -71c8,-11 17,-23 25,-34l-11 -9c-9,12 -17,23 -26,35l12 8zm51 -69c9,-11 18,-22 27,-33l-11 -9c-9,11 -18,22 -27,34l11 8zm54 -66c10,-11 19,-22 28,-33l-11 -9c-9,10 -18,21 -28,32l11 10zm56 -65c10,-11 20,-22 29,-32l-10 -10c-10,11 -20,21 -29,32l10 10zm59 -63c10,-11 20,-21 30,-31l-11 -10c-10,10 -20,20 -30,31l11 10 0 0zm60 -61c10,-10 21,-20 31,-30l-10 -10c-10,9 -21,19 -31,29l10 11zm62 -59c11,-10 22,-19 33,-29l-10 -11c-11,10 -22,19 -32,29l9 11zm65 -57c11,-9 22,-19 33,-28l-9 -11c-11,9 -22,19 -33,28l9 11zm67 -55c11,-9 22,-18 33,-26l-8 -12c-12,9 -23,18 -34,27l9 11zm68 -52c11,-9 23,-17 35,-25l-9 -12c-11,8 -23,17 -35,25l9 12zm70 -50c12,-8 24,-16 36,-24l-8 -12c-12,8 -24,16 -36,24l8 12 0 0zm72 -48c12,-8 24,-15 36,-23l-7 -12c-13,8 -25,15 -37,23l8 12 0 0zm73 -45c12,-7 25,-15 37,-22l-7 -12c-13,7 -25,14 -37,22l7 12 0 0zm75 -43c12,-7 25,-13 38,-20l-7 -13c-13,7 -26,14 -38,21l7 12zm76 -40c13,-6 26,-13 38,-19l-6 -13c-13,6 -26,13 -39,19l7 13zm77 -38c13,-6 27,-12 40,-18l-6 -13c-13,6 -27,12 -40,18l6 13zm79 -35c13,-5 27,-11 40,-16l-5 -13c-14,5 -27,10 -40,16l5 13zm80 -32c13,-5 27,-10 40,-15l-5 -14c-13,5 -27,10 -40,16l5 13zm81 -30c14,-4 27,-9 41,-13l-5 -14c-13,4 -27,9 -41,14l5 13zm82 -26c14,-5 27,-9 41,-13l-4 -14c-14,4 -27,9 -41,13l4 14zm83 -24c14,-4 27,-8 41,-11l-3 -14c-14,3 -28,7 -42,11l4 14zm83 -22c14,-3 28,-6 42,-9l-3 -14c-14,3 -28,6 -42,9l3 14zm84 -18c14,-3 29,-5 43,-8l-3 -14c-14,2 -28,5 -42,8l2 14zm85 -15c14,-3 29,-5 43,-7l-2 -14c-15,2 -29,4 -43,7l2 14zm85 -13c15,-2 29,-3 43,-5l-1 -14c-15,1 -29,3 -43,5l1 14zm86 -9c14,-2 29,-3 43,-4l-1 -14c-15,1 -29,2 -43,3l1 15zm86 -7c14,-1 29,-2 43,-2l-1 -14c-14,0 -29,1 -43,2l1 14zm86 -4c14,0 29,0 43,0l0 -15c-15,0 -29,1 -43,1l0 14zm86 0c14,0 29,0 43,0l0 -14c-14,0 -28,-1 -43,-1l0 15 0 0zm86 2c15,0 29,1 43,2l1 -14c-14,-1 -29,-2 -43,-3l-1 15zm86 5c15,1 29,2 43,4l1 -15c-14,-1 -28,-2 -43,-3l-1 14zm86 8c14,2 28,3 43,5l2 -14c-15,-2 -29,-4 -43,-5l-2 14zm85 11c15,2 29,4 43,6l2 -14c-14,-2 -28,-4 -43,-6l-2 14zm85 14c15,2 29,5 43,8l2 -14c-14,-3 -28,-6 -42,-8l-3 14zm85 16c14,3 28,6 42,10l3 -14c-14,-3 -28,-7 -42,-10l-3 14zm84 20c14,3 28,7 41,11l4 -14c-14,-4 -28,-8 -42,-11l-3 14zm83 22c14,4 27,8 41,12l4 -13c-13,-5 -27,-9 -41,-13l-4 14zm82 25c14,5 27,9 41,14l5 -14c-14,-4 -28,-9 -41,-13l-5 13zm82 28c13,5 27,10 40,15l5 -13c-13,-5 -27,-10 -40,-15l-5 13 0 0zm80 31c13,5 27,11 40,16l5 -13c-13,-6 -26,-11 -40,-17l-5 14zm79 33c13,6 27,12 40,18l6 -13c-14,-6 -27,-12 -40,-18l-6 13zm79 36c12,6 25,13 38,19l7 -13c-13,-6 -26,-13 -39,-19l-6 13zm76 39c13,6 26,13 38,20l7 -13c-12,-7 -25,-13 -38,-20l-7 13zm76 41c12,7 25,14 37,21l7 -12c-12,-7 -24,-15 -37,-22l-7 13zm74 43c12,8 24,15 36,23l8 -12c-12,-8 -24,-15 -37,-23l-7 12zm72 47c12,7 24,15 36,24l8 -12c-12,-8 -24,-16 -36,-24l-8 12zm71 48c12,8 24,17 35,25l9 -11c-12,-9 -24,-17 -35,-26l-9 12zm70 51c11,9 22,18 33,26l9 -11c-11,-9 -22,-18 -34,-26l-8 11zm67 53c11,9 22,19 33,28l9 -11c-11,-9 -22,-19 -33,-28l-9 11 0 0zm65 56c11,9 22,19 32,28l10 -10c-11,-10 -21,-19 -32,-29l-10 11zm64 58c10,9 21,19 31,29l10 -10c-10,-10 -21,-20 -31,-30l-10 11zm61 59c11,11 21,21 30,31l11 -10c-10,-10 -20,-21 -30,-31l-11 10zm60 62c10,11 19,21 29,32l10 -10c-9,-10 -19,-21 -29,-31l-10 9zm57 64c10,11 19,22 28,33l11 -9c-9,-11 -18,-22 -28,-33l-11 9zm56 66c9,11 17,23 26,34l12 -9c-9,-11 -18,-23 -27,-34l-11 9zm53 68c8,12 17,23 25,35l12 -9c-9,-11 -17,-23 -26,-35l-11 9zm50 70c8,11 17,23 25,35l11 -8c-8,-12 -16,-24 -24,-36l-12 9zm48 71c8,12 16,24 24,36l12 -8c-8,-12 -16,-24 -24,-36l-12 8z"/>
  <path class="fil0" d="M5565 1910c4,6 7,12 11,18l12 -7c-3,-7 -7,-13 -11,-19l-12 8z"/>
  <polygon class="fil0" points="1185,4257 1174,4457 1006,4348 "/>
  <path class="fil0" d="M5514 1960c22,36 68,48 104,26 36,-21 48,-67 26,-103 -21,-36 -67,-48 -103,-27 -36,22 -48,68 -27,104z"/>
  <path class="fil0" d="M6303 1687c7,13 13,26 20,38l13 -6c-7,-13 -13,-26 -20,-38l-13 6 0 0zm39 77c7,13 13,25 19,38l13 -6c-6,-13 -12,-26 -19,-39l-13 7zm38 77c6,13 11,26 17,39l13 -6c-5,-13 -11,-26 -17,-39l-13 6zm35 79c5,13 11,26 16,39l14 -5c-6,-14 -11,-27 -17,-40l-13 6zm33 79c5,13 10,27 16,40l13 -5c-5,-14 -11,-27 -16,-40l-13 5zm31 80c5,13 10,27 15,40l13 -4c-5,-14 -10,-27 -15,-41l-13 5zm29 81c4,14 9,27 13,41l14 -5c-5,-13 -9,-27 -14,-41l-13 5zm26 82c5,13 9,27 13,41l14 -4c-4,-14 -9,-28 -13,-42l-14 5zm25 82c4,14 8,27 12,41l13 -3c-3,-14 -7,-28 -11,-42l-14 4zm23 83c3,14 7,28 10,41l14 -3c-4,-14 -7,-28 -11,-42l-13 4zm20 83c3,14 6,28 9,42l14 -3c-3,-14 -6,-28 -9,-42l-14 3zm18 84c3,14 5,28 8,42l14 -2c-3,-14 -5,-29 -8,-43l-14 3 0 0zm16 85c2,14 4,28 7,42l14 -2c-2,-15 -5,-29 -7,-43l-14 3zm13 84c2,15 4,29 6,43l14 -2c-2,-14 -4,-28 -6,-43l-14 2zm12 85c1,15 3,29 4,43l15 -1c-2,-15 -4,-29 -5,-43l-14 1zm9 86c1,14 2,28 3,43l15 -2c-1,-14 -3,-28 -4,-42l-14 1zm7 85c0,15 1,29 2,43l14 -1c0,-14 -1,-28 -2,-43l-14 1 0 0zm4 86c1,14 1,29 2,43l14 0c0,-15 -1,-29 -2,-43l-14 0 0 0zm3 86c0,14 0,29 0,43l14 0c0,-15 0,-29 0,-43l-14 0zm0 86c-1,14 -1,28 -1,43l14 0c1,-14 1,-29 1,-43l-14 0zm-2 86c-1,14 -2,28 -2,43l14 0c1,-14 1,-28 2,-43l-14 0zm-5 85c-1,15 -2,29 -3,43l14 1c2,-14 3,-28 3,-43l-14 -1zm-6 86c-2,14 -3,29 -5,43l15 1c1,-14 3,-28 4,-43l-14 -1zm-9 85c-2,15 -4,29 -6,43l15 2c2,-14 3,-29 5,-43l-14 -2zm-11 86c-2,14 -4,28 -7,42l15 2c2,-14 4,-28 6,-42l-14 -2zm-14 84c-2,14 -4,29 -7,43l14 2c3,-14 5,-28 8,-42l-15 -3zm-15 85c-3,14 -6,28 -9,42l14 3c3,-14 6,-28 9,-42l-14 -3zm-18 84c-3,14 -6,28 -9,42l14 3c3,-14 6,-28 9,-42l-14 -3zm-19 83c-4,14 -8,28 -11,42l14 3c3,-13 7,-27 10,-41l-13 -4zm-22 83c-4,14 -8,28 -12,41l14 4c4,-13 8,-27 11,-41l-13 -4zm-25 82c-4,14 -8,28 -12,41l13 5c5,-14 9,-28 13,-41l-14 -5zm-26 82c-4,14 -9,27 -14,41l14 4c5,-13 9,-27 14,-40l-14 -5zm-28 81c-5,14 -10,27 -15,40l13 5c5,-13 10,-27 15,-40l-13 -5zm-30 80c-6,14 -11,27 -16,40l13 5c5,-13 11,-26 16,-39l-13 -6zm-33 80c-6,13 -11,26 -17,39l13 6c6,-13 12,-27 17,-40l-13 -5zm-35 78c-5,13 -11,26 -18,39l13 6c7,-13 13,-26 19,-39l-14 -6zm-36 78c-6,12 -13,25 -19,38l13 6c6,-12 13,-25 19,-38l-13 -6zm-39 76c-6,13 -13,25 -20,38l13 7c7,-13 13,-26 20,-38l-13 -7zm-40 76c-7,12 -14,25 -21,37l12 7c7,-12 14,-25 21,-37l-12 -7zm-43 74c-7,12 -14,25 -22,37l13 7c7,-12 15,-24 22,-37l-13 -7zm-44 73c-8,12 -15,24 -23,36l12 8c8,-12 16,-24 23,-36l-12 -8zm-46 72c-8,12 -16,24 -24,36l12 8c8,-12 16,-24 24,-36l-12 -8 0 0zm-48 71c-9,12 -17,23 -25,35l12 8c8,-11 16,-23 24,-35l-11 -8zm-50 70c-9,11 -17,23 -26,34l11 9c9,-12 18,-23 26,-35l-11 -8zm-52 68c-9,11 -18,22 -27,33l12 9c9,-11 17,-22 26,-33l-11 -9zm-54 67c-9,11 -18,22 -27,32l11 10c9,-11 18,-22 27,-33l-11 -9zm-55 65c-9,11 -19,21 -28,32l11 10c9,-11 19,-22 28,-33l-11 -9zm-57 64c-9,10 -19,21 -29,31l11 10c9,-10 19,-21 29,-32l-11 -9zm-58 62c-10,10 -20,21 -30,31l10 10c10,-10 20,-21 30,-31l-10 -10zm-60 61c-11,10 -21,20 -31,30l10 10c10,-10 20,-20 31,-30l-10 -10zm-62 59c-10,10 -21,19 -31,29l9 11c11,-10 21,-20 32,-30l-10 -10zm-63 58c-11,9 -22,18 -33,28l10 11c11,-10 21,-19 32,-29l-9 -10 0 0zm-65 56c-11,9 -22,18 -33,27l9 11c11,-9 22,-18 33,-27l-9 -11zm-67 54c-11,9 -22,18 -33,26l8 12c12,-9 23,-18 34,-27l-9 -11zm-68 52c-11,9 -22,18 -34,26l9 12c11,-9 23,-17 34,-26l-9 -12 0 0zm-69 51c-11,9 -23,17 -35,25l8 12c12,-8 24,-17 36,-25l-9 -12zm-70 49c-12,8 -24,16 -36,24l8 12c12,-8 24,-16 36,-24l-8 -12zm-72 47c-12,8 -24,16 -36,23l7 12c13,-7 25,-15 37,-23l-8 -12 0 0zm-73 46c-12,7 -24,14 -37,21l8 13c12,-7 24,-15 37,-22l-8 -12zm-74 43c-9,5 -18,10 -27,15 -4,2 -7,4 -10,6l7 12c3,-1 6,-3 10,-5 9,-5 18,-10 27,-16l-7 -12zm-75 41c-13,7 -25,14 -38,20l7 13c12,-7 25,-13 38,-20l-7 -13zm-76 40c-13,6 -26,13 -39,19l7 13c12,-6 25,-13 38,-19l-6 -13 0 0zm-78 38c-12,6 -25,12 -39,18l6 13c13,-6 27,-12 40,-19l-7 -12zm-78 35c-13,6 -26,12 -39,17l5 13c14,-5 27,-11 40,-17l-6 -13 0 0zm-79 34c-13,5 -26,10 -40,16l5 13c14,-5 27,-11 41,-16l-6 -13zm-80 31c-13,5 -27,10 -40,15l5 13c13,-4 27,-9 40,-15l-5 -13zm-81 29c-13,5 -27,10 -40,14l4 14c14,-5 27,-9 41,-14l-5 -14zm-81 28c-14,4 -27,8 -41,12l4 14c14,-4 28,-8 41,-13l-4 -13zm-82 25c-14,4 -28,8 -42,11l4 14c14,-4 28,-8 42,-12l-4 -13 0 0zm-83 23c-14,3 -28,7 -42,10l4 14c14,-3 28,-7 42,-11l-4 -13zm-83 20c-14,3 -28,7 -42,10l3 14c14,-3 28,-7 42,-10l-3 -14zm-84 19c-14,3 -28,5 -42,8l2 14c14,-3 29,-5 43,-8l-3 -14zm-85 16c-14,2 -28,5 -42,7l2 14c15,-2 29,-4 43,-7l-3 -14zm-84 14c-14,2 -29,4 -43,6l2 14c14,-2 29,-4 43,-6l-2 -14 0 0zm-85 12c-15,2 -29,3 -43,5l2 14c14,-1 28,-3 42,-5l-1 -14zm-86 9c-14,2 -28,3 -42,4l1 15c14,-2 28,-3 43,-4l-2 -15zm-85 8c-15,1 -29,2 -43,3l1 14c14,-1 28,-2 43,-3l-1 -14zm-86 5c-14,0 -29,1 -43,1l1 15c14,-1 28,-1 43,-2l-1 -14zm-86 3c-14,0 -28,0 -43,0l0 14c15,0 29,0 44,0l-1 -14zm-86 0c-14,0 -28,0 -43,0l0 14c15,0 29,0 43,1l0 -15zm-85 -1c-15,-1 -29,-2 -43,-2l-1 14c14,1 29,1 43,2l1 -14zm-86 -4c-15,-1 -29,-2 -43,-3l-1 14c14,1 29,2 43,3l1 -14 0 0zm-86 -7c-14,-1 -28,-2 -43,-3l-1 14c14,1 29,3 43,4l1 -15zm-85 -8c-15,-2 -29,-3 -43,-5l-2 14c15,2 29,4 43,5l2 -14zm-85 -11c-15,-1 -29,-4 -43,-6l-2 15c14,2 28,4 43,6l2 -15 0 0zm-85 -12c-14,-3 -29,-5 -43,-8l-2 15c14,2 28,4 42,7l3 -14zm-85 -15c-14,-3 -28,-6 -42,-9l-3 14c14,3 28,6 42,9l3 -14zm-84 -18c-14,-3 -28,-6 -42,-9l-3 14c14,3 28,6 42,9l3 -14zm-84 -19c-13,-3 -27,-7 -41,-10l-4 13c14,4 28,8 42,11l3 -14zm-83 -21c-13,-4 -27,-8 -41,-12l-4 14c14,4 28,8 42,11l3 -13zm-82 -24c-14,-4 -27,-8 -41,-13l-4 14c13,4 27,8 41,13l4 -14zm-82 -26c-13,-4 -27,-9 -40,-14l-5 14c13,5 27,9 41,14l4 -14zm-81 -28c-13,-5 -27,-10 -40,-15l-5 14c13,5 27,10 40,15l5 -14zm-80 -30c-14,-5 -27,-10 -40,-16l-5 14c13,5 26,10 40,16l5 -14zm-80 -32c-13,-5 -26,-11 -39,-17l-6 13c13,6 26,12 40,17l5 -13zm-78 -34c-13,-6 -26,-12 -39,-18l-6 13c13,6 26,12 39,18l6 -13 0 0zm-78 -36c-13,-6 -26,-13 -39,-19l-6 13c13,6 26,13 39,19l6 -13zm-77 -38c-13,-7 -25,-13 -38,-20l-7 13c13,6 26,13 39,19l6 -12zm-76 -40c-12,-7 -25,-14 -37,-21l-7 12c12,7 25,14 38,21l6 -12zm-74 -43c-13,-7 -25,-14 -37,-21l-7 12c12,7 24,15 37,22l7 -13zm-74 -44c-12,-7 -24,-15 -36,-22l-8 12c12,8 25,15 37,23l7 -13zm-72 -45c-12,-8 -24,-16 -36,-24l-8 12c12,8 24,16 36,24l8 -12zm-71 -48c-12,-8 -24,-16 -35,-25l-8 12c11,8 23,16 35,25l8 -12zm-70 -50c-11,-8 -23,-17 -34,-25l-9 11c12,9 23,17 35,26l8 -12zm-68 -51c-12,-9 -23,-18 -34,-27l-9 12c11,9 23,17 34,26l9 -11zm-67 -53c-11,-9 -22,-18 -33,-28l-10 11c11,10 22,19 34,28l9 -11zm-66 -55c-11,-10 -22,-19 -32,-28l-10 10c11,10 22,19 33,29l9 -11 0 0zm-64 -57c-11,-9 -21,-19 -32,-29l-9 11c10,10 21,19 31,29l10 -11zm-63 -58c-10,-10 -20,-20 -31,-30l-10 10c11,11 21,20 31,30l10 -10zm-61 -60c-10,-10 -20,-20 -30,-30l-10 10c10,10 20,20 30,30l10 -10 0 0zm-59 -61c-10,-11 -20,-21 -30,-32l-10 10c10,11 19,21 29,32l11 -10zm-58 -63c-10,-11 -19,-22 -29,-32l-10 9c9,11 19,22 28,32l11 -9zm-57 -65c-9,-11 -18,-22 -27,-33l-11 9c9,11 18,22 27,33l11 -9 0 0zm-54 -66c-9,-11 -18,-22 -27,-34l-11 9c9,12 18,23 27,34l11 -9zm-53 -67c-9,-12 -17,-23 -26,-35l-11 9c8,11 17,23 25,34l12 -8zm-51 -69c-9,-12 -17,-24 -25,-35l-12 8c8,12 17,23 25,35l12 -8zm-50 -71c-8,-11 -16,-23 -24,-35l-11 8c7,12 15,24 24,36l11 -9zm-47 -71c-8,-12 -15,-24 -23,-36l-12 8c8,12 15,24 23,36l12 -8z"/>
  <path class="fil0" d="M6243 1723c-19,-37 -5,-83 32,-102 37,-19 83,-5 102,32 19,37 5,82 -32,102 -37,19 -82,5 -102,-32z"/>
  <polygon class="fil0" points="691,4921 517,4823 519,5023 "/>
  <path class="fil1" d="M1357 2609c0,349 -283,632 -632,632 -349,0 -633,-283 -633,-632 0,-349 284,-632 633,-632 349,0 632,283 632,632z"/>
  <polygon class="fil2" points="2425,343 2566,485 2566,674 2472,674 2472,532 2377,532 2377,674 2283,674 2283,485 "/>
  <path class="fil2" d="M2614 506c-6,0 -11,-2 -15,-6l-174 -174 -175 174c-8,8 -21,8 -29,0 -8,-8 -8,-21 0,-30l189 -189c8,-8 21,-8 29,0l189 189c9,9 9,22 0,30 -4,4 -9,6 -14,6z"/>
  <path class="fil2" d="M5166 4819c5,27 26,47 49,47 22,0 43,-20 49,-48 2,-1 4,-6 5,-11 1,-7 -2,-13 -5,-14l-1 0c-5,-21 -22,-39 -45,-40 5,-3 9,-4 9,-4 -6,1 -10,2 -14,3 -3,-1 -7,-1 -11,-2 0,0 3,1 7,3l-1 0c-5,0 -11,0 -18,3 1,-1 4,-1 9,-1 -17,6 -29,21 -33,39l-2 -1c-4,1 -6,7 -5,14 0,6 4,12 7,12z"/>
  <path class="fil2" d="M5365 4931c-8,-7 -19,-7 -26,1l-24 27 -15 -38 -8 -21c-1,-4 -5,-8 -9,-10l0 0c-7,-5 -16,-7 -26,-7l-14 0c1,5 2,10 2,16 0,19 -6,35 -14,45l-6 -37 -1 -2 1 -2 7 -19 -2 -1 -33 0 -1 1 7 19 1 2 -1 2 -7 37c-8,-10 -13,-26 -13,-45 0,-6 0,-11 1,-16l-14 0c-9,0 -18,2 -26,7l0 0c-4,2 -7,6 -9,10l-8 21 -47 126c-4,10 2,22 14,25 13,3 26,-2 30,-13l28 -76 0 276c0,17 12,30 27,30 15,0 27,-13 27,-30l0 -183 14 0 0 183c0,17 12,30 27,30 14,0 27,-13 27,-30l0 -280 10 26c2,5 3,7 6,10 7,8 20,7 27,-1l13 -15 37 -42c7,-8 6,-20 -2,-26z"/>
  <path class="fil3" d="M6758 4730c0,350 -284,633 -633,633 -349,0 -632,-283 -632,-633 0,-349 283,-632 632,-632 349,0 633,283 633,632z"/>
  <path class="fil4" d="M2300 5966c0,260 -211,471 -470,471 -260,0 -471,-211 -471,-471 0,-260 211,-470 471,-470 259,0 470,210 470,470z"/>
  <path class="fil5" d="M6458 2299c0,174 -141,315 -315,315 -174,0 -316,-141 -316,-315 0,-174 142,-316 316,-316 174,0 315,142 315,316z"/>
  <g id="_2856064993088">
   <polygon class="fil6" points="5551,3798 6120,3798 6120,3229 5551,3229 "/>
   <path class="fil7" d="M6120 3798l0 0zm-569 -569l0 0z"/>
   <path class="fil8" d="M6115 3803l-5 -5 10 0 -5 5zm-564 -564l-5 -5 5 -5 0 10z"/>
   <path class="fil9" d="M6120 3798l-10 0 -275 -275 11 -10 274 275 0 10 0 0m-295 -285l-274 -274 0 -10 10 0 274 274 -10 10z"/>
   <path class="fil10" d="M6120 3798l0 -10 5 5 -5 5zm-574 -564l5 -5 -5 5zm15 -5l-10 0 5 -5 5 5z"/>
   <path class="fil7" d="M5551 3798l0 0zm569 -569l0 0zm0 0l0 0z"/>
   <line class="fil11" x1="6120" y1="3229" x2="6120" y2= "3229" />
   <path class="fil12" d="M5556 3803l-5 -5 10 0 -5 5zm-5 -5l-5 -5 5 -5 0 10zm569 -559l0 -10 5 5 -5 5zm0 -10l0 0 -5 -5 5 5 -5 -5 5 5 -10 0 5 -5 5 5z"/>
   <path class="fil9" d="M5561 3798l-10 0 0 -10 274 -275 10 10 -274 275zm285 -285l-11 -10 275 -274 10 0 0 10 -274 274zm274 -284l0 0zm0 0l0 0z"/>
   <polygon class="fil9" points="5835,3523 5825,3513 5835,3503 5846,3513 "/>
  </g>
  <path class="fil13" d="M3146 6440l-30 0c-122,0 -222,-99 -222,-221l0 -239c0,-122 100,-222 222,-222l30 0c122,0 221,100 221,222l0 239c0,122 -99,221 -221,221z"/>
  <path class="fil14" d="M3294 5815l0 189c0,191 -158,346 -355,348 -28,-37 -45,-83 -45,-133l0 -239c0,-122 100,-222 222,-222l30 0c57,0 109,22 148,57z"/>
  <g id="_2856064981504">
   <polygon class="fil4" points="4963,6663 4913,6691 4762,6420 4813,6392 "/>
   <polygon class="fil0" points="4938,6677 4913,6691 4762,6420 4788,6406 "/>
   <path class="fil15" d="M4696 6459c-73,0 -143,-38 -181,-106 -56,-100 -20,-226 80,-282 32,-18 67,-26 101,-26 72,0 143,38 181,106 50,90 26,201 -52,263l-12 -22 -51 28 13 23c-26,11 -52,16 -79,16zm-141 -161c-13,5 -27,10 -40,15l5 13c13,-4 27,-9 40,-15l-5 -13zm80 -31c-13,5 -26,10 -40,16l5 13c14,-5 27,-11 41,-16l-6 -13zm79 -34c-13,6 -26,12 -39,17l5 13c14,-5 27,-11 40,-17l-6 -13 0 0 0 0zm78 -35c-12,6 -25,12 -39,18l6 13c13,-6 27,-12 40,-19l-7 -12zm78 -38l0 0c-13,6 -26,13 -39,19l7 13c12,-6 25,-13 38,-19l-6 -13z"/>
   <path class="fil16" d="M4520 6326l-5 -13c13,-5 27,-10 40,-15l5 13c-13,6 -27,11 -40,15zm80 -30l-5 -13c14,-6 27,-11 40,-16l6 13c-14,5 -27,11 -41,16zm80 -33l-5 -13c13,-5 26,-11 39,-17l6 13c-13,6 -26,12 -40,17zm34 -30l0 0 0 0zm45 -4l-6 -13c14,-6 27,-12 39,-18l7 12c-13,7 -27,13 -40,19zm79 -37l-7 -13c13,-6 26,-13 39,-19l0 0 6 13c-13,6 -26,13 -38,19z"/>
   <path class="fil17" d="M4801 6430l-13 -24 -26 14 51 -28 12 22c-8,6 -15,11 -24,16z"/>
   <path class="fil17" d="M4775 6443l-13 -23 26 -14 13 24c-1,1 -3,2 -5,3 -7,4 -14,7 -21,10z"/>
   <path class="fil4" d="M4523 6203c-14,46 -8,95 15,137 49,86 159,118 245,69 42,-23 73,-61 86,-108 13,-46 8,-95 -16,-137 -48,-86 -158,-118 -245,-70 -42,24 -72,62 -85,109zm398 113c-18,60 -57,110 -112,140 -112,63 -255,22 -318,-90 -30,-55 -37,-118 -20,-178 17,-60 56,-110 111,-140 113,-63 256,-22 318,90 30,55 38,118 21,178z"/>
   <path class="fil4" d="M4796 6528l120 215c13,25 44,33 68,20l1 -1 -144 -259 -45 25z"/>
   <path class="fil0" d="M4841 6503l144 259 2 -1c24,-13 33,-44 19,-68l-120 -215 -45 25z"/>
  </g>
  <path class="fil4" d="M2198 1755c0,139 -113,251 -252,251 -139,0 -251,-112 -251,-251 0,-139 112,-252 251,-252 139,0 252,113 252,252z"/>
  <polygon class="fil18" points="2081,1755 1975,1806 1870,1856 1870,1653 1975,1704 "/>
  <path class="fil4" d="M1789 4705c0,161 -130,291 -290,291 -161,0 -291,-130 -291,-291 0,-160 130,-290 291,-290 160,0 290,130 290,290z"/>
  <path class="fil19" d="M1499 4392c-173,0 -313,141 -313,313 0,173 140,313 313,313 173,0 313,-140 313,-313 0,-172 -140,-313 -313,-313zm0 644c-183,0 -331,-148 -331,-331 0,-182 148,-331 331,-331 182,0 331,149 331,331 0,183 -149,331 -331,331z"/>
  <path class="fil20" d="M4104 632c0,350 -283,633 -632,633 -350,0 -633,-283 -633,-633 0,-349 283,-632 633,-632 349,0 632,283 632,632z"/>
  <path class="fil21" d="M2546 1615l0 0c0,-107 -88,-194 -195,-194 107,0 195,-88 195,-195 0,107 87,195 194,195 -107,0 -194,87 -194,194z"/>
  <path class="fil22" d="M2351 1635l0 0c0,-65 -52,-117 -117,-117 65,0 117,-52 117,-117 0,65 52,117 117,117 -65,0 -117,52 -117,117z"/>
  <path class="fil18" d="M5234 2094l0 0c0,-108 -87,-195 -194,-195 107,0 194,-87 194,-194 0,107 87,194 195,194 -108,0 -195,87 -195,195z"/>
  <path class="fil22" d="M5040 2113l0 0c0,-64 -53,-117 -117,-117 64,0 117,-52 117,-116 0,64 52,116 116,116 -64,0 -116,53 -116,117z"/>
  <path class="fil18" d="M2583 5398l0 0c0,-108 -87,-195 -195,-195 108,0 195,-87 195,-195 0,108 87,195 195,195 -108,0 -195,87 -195,195z"/>
  <path class="fil22" d="M2388 5417l0 0c0,-64 -52,-117 -116,-117 64,0 116,-52 116,-116 0,64 53,116 117,116 -64,0 -117,53 -117,117z"/>
  <path class="fil2" d="M4858 583c-4,0 -6,-3 -6,-6 0,-38 -31,-68 -68,-68 -4,0 -6,-3 -6,-6 0,-3 2,-6 6,-6 44,0 80,36 80,80 0,3 -3,6 -6,6z"/>
  <polygon class="fil2" points="4807,735 4798,733 4816,624 4825,626 "/>
  <polygon class="fil2" points="4761,735 4743,626 4752,624 4770,733 "/>
  <path class="fil2" d="M4820 640c-4,0 -6,-4 -7,-7l-2 -3 -2 3c-1,3 -3,7 -7,7 -4,0 -5,-4 -6,-7l-3 -3 -2 3c-1,3 -3,7 -6,7 -4,0 -6,-4 -7,-7l-2 -3 -2 3c-1,3 -3,7 -7,7 -4,0 -5,-4 -6,-7l-3 -3 -2 3c-1,3 -3,7 -6,7l0 -5 2 -4c1,-2 3,-6 6,-6 4,0 6,4 7,6l2 4 2 -4c2,-2 3,-6 7,-6 4,0 5,4 7,6l2 4 2 -4c1,-2 3,-6 6,-6 4,0 6,4 7,6l2 4 2 -4c2,-2 3,-6 7,-6 4,0 5,4 7,6l2 4 0 5z"/>
  <path class="fil2" d="M4784 443c-4,0 -6,-3 -6,-6l0 -64c0,-3 2,-6 6,-6 3,0 6,3 6,6l0 64c0,3 -3,6 -6,6z"/>
  <path class="fil2" d="M4856 462l-3 0c-3,-2 -4,-6 -2,-9l32 -55c1,-3 5,-4 8,-2 3,2 4,6 2,8l-31 55c-2,2 -4,3 -6,3z"/>
  <path class="fil2" d="M4909 515c-2,0 -4,-1 -5,-3 -2,-2 -1,-6 2,-8l55 -32c3,-1 7,0 9,3 1,3 0,6 -3,8l-55 32 -3 0z"/>
  <path class="fil2" d="M4994 588l-65 0c-4,0 -6,-3 -6,-6 0,-3 2,-6 6,-6l65 0c4,0 6,3 6,6 0,3 -2,6 -6,6z"/>
  <path class="fil2" d="M4964 692l-3 -1 -55 -31c-3,-2 -3,-6 -2,-9 2,-2 6,-3 8,-2l55 32c3,2 4,5 3,8 -1,2 -4,3 -6,3z"/>
  <path class="fil2" d="M4711 462c-2,0 -4,-1 -5,-3l-32 -55c-1,-2 0,-6 3,-8 2,-1 6,0 8,2l31 55c2,3 1,7 -2,9l-3 0z"/>
  <path class="fil2" d="M4658 516l-3 -1 -55 -32c-3,-2 -4,-5 -2,-8 2,-3 5,-4 8,-2l55 31c3,2 4,6 2,9 -1,1 -3,3 -5,3z"/>
  <path class="fil2" d="M4639 588l-64 0c-3,0 -6,-3 -6,-6 0,-3 3,-6 6,-6l64 0c3,0 6,3 6,6 0,3 -3,6 -6,6z"/>
  <path class="fil2" d="M4603 692c-2,0 -4,-1 -5,-3 -2,-3 -1,-6 2,-8l55 -32c3,-1 7,0 8,2 2,3 1,7 -2,9l-55 31 -3 1z"/>
  <path class="fil2" d="M4740 717l87 0c0,-5 1,-9 1,-9 1,-14 5,-26 11,-34 39,-50 40,-97 40,-97 0,-53 -43,-96 -95,-96 -53,0 -96,43 -96,96 0,0 2,47 41,97 6,8 9,20 11,34 0,0 0,4 0,9zm99 0c2,0 3,1 4,1 -1,0 -2,-1 -4,-1zm-109 0c-6,0 -9,4 -10,8 1,-5 5,-8 10,-8zm107 20l-107 0c-6,0 -10,-5 -10,-10l0 -2c1,-7 0,-29 -7,-39 -44,-55 -45,-109 -45,-109 0,-64 52,-116 116,-116 64,0 115,52 115,116 0,0 -1,54 -44,109 -8,11 -8,33 -8,39l1 2c0,5 -5,10 -11,10z"/>
  <path class="fil2" d="M4834 758l-100 0c-6,0 -10,-4 -10,-10 0,-5 4,-10 10,-10l100 0c6,0 10,5 10,10 0,6 -4,10 -10,10z"/>
  <path class="fil2" d="M4827 780l-86 0c-6,0 -10,-5 -10,-10 0,-6 4,-10 10,-10l86 0c5,0 10,4 10,10 0,5 -5,10 -10,10z"/>
  <path class="fil2" d="M4814 801l-60 0c-6,0 -10,-5 -10,-10 0,-6 4,-10 10,-10l60 0c6,0 10,4 10,10 0,5 -4,10 -10,10z"/>
  <g id="_2856061376384">
   <polygon class="fil6" points="93,1919 93,1767 8,1847 0,1839 0,1919 "/>
   <polygon class="fil6" points="203,1919 203,1792 136,1721 110,1746 110,1919 "/>
   <polygon class="fil6" points="313,1919 313,1753 233,1822 220,1808 220,1919 "/>
   <polygon class="fil6" points="423,1919 423,1657 329,1739 329,1919 "/>
   <path class="fil6" d="M421 1570l-184 158 -85 -84c-4,-4 -10,-6 -15,-6 -6,0 -11,2 -15,6l-122 118 0 41 8 7 129 -124 85 82c7,8 20,8 28,1l173 -149 0 -48 -2 -2z"/>
  </g>
  <path class="fil23" d="M6291 2413l-297 0 120 -90 2 2c8,7 18,10 27,10 10,0 20,-3 28,-10l2 -1 118 89zm-299 -222l303 0 -140 116c-6,5 -17,5 -24,0l-139 -116zm323 210l-123 -93 123 -102 0 193 0 2zm-344 -2l0 -194 124 103 -124 92 0 -1zm-23 -194l0 194c0,21 16,37 37,37l316 0c21,0 38,-16 38,-37l0 -194c0,-21 -17,-38 -38,-38l-316 0c-21,0 -37,17 -37,38z"/>
  <path class="fil24" d="M2774 1791c0,25 -21,46 -46,46 -25,0 -46,-21 -46,-46 0,-26 21,-46 46,-46 25,0 46,20 46,46z"/>
  <path class="fil24" d="M4436 1791c0,25 -20,46 -46,46 -25,0 -46,-21 -46,-46 0,-26 21,-46 46,-46 26,0 46,20 46,46z"/>
  <path class="fil24" d="M5153 2450c0,25 -21,46 -46,46 -25,0 -46,-21 -46,-46 0,-25 21,-46 46,-46 25,0 46,21 46,46z"/>
  <path class="fil24" d="M2029 2450c0,25 -21,46 -46,46 -26,0 -46,-21 -46,-46 0,-25 20,-46 46,-46 25,0 46,21 46,46z"/>
  <path class="fil24" d="M3605 5259c0,25 -20,46 -46,46 -25,0 -46,-21 -46,-46 0,-26 21,-46 46,-46 26,0 46,20 46,46z"/>
  <path class="fil24" d="M4823 3969c0,25 -20,46 -46,46 -25,0 -46,-21 -46,-46 0,-25 21,-46 46,-46 26,0 46,21 46,46z"/>
  <path class="fil24" d="M2373 3969c0,25 -21,46 -46,46 -26,0 -46,-21 -46,-46 0,-25 20,-46 46,-46 25,0 46,21 46,46z"/>
  <path class="fil25" d="M4431 5561l0 0c4,4 12,10 22,12l6 2 0 0c4,2 8,4 8,8l0 8c0,0 0,14 -2,32 -2,10 -6,22 -10,34 -6,16 -14,36 -30,56 -16,20 -36,38 -66,54l-4 1c-2,0 -4,0 -8,0l-2 -1 -2 0c-24,-14 -44,-30 -58,-46 -20,-22 -30,-46 -38,-64 -4,-12 -6,-24 -8,-34l0 0c-2,-18 -2,-32 -2,-32l0 -8c0,-4 2,-6 6,-8l8 -2c10,-2 18,-8 22,-12 8,-12 10,-24 10,-26l0 -6c0,-4 2,-8 6,-10l6 0c2,0 10,-2 20,-4 12,-2 26,-4 36,-4 12,0 26,2 36,4 10,0 18,2 20,4l8 0c4,2 6,6 6,10l0 6c0,2 0,14 10,26l0 0zm-120 204l-352 0c0,-142 52,-106 158,-166l0 -24c-18,-12 -22,-36 -30,-60l0 0c-2,0 -5,-6 -5,-10 0,-2 0,-2 0,-2 -1,-4 -3,-8 -5,-14 -2,-6 -8,-22 -2,-28 4,-6 7,0 7,0 -7,-40 -17,-92 39,-108 0,-34 130,-20 146,36 6,22 -2,72 -2,72 2,-4 4,-4 6,-2 8,4 0,24 -2,30l0 2 -6 0 0 10c0,0 0,6 -2,12 -2,0 -2,0 -2,2 -2,4 -2,8 -4,12 -6,12 -18,26 -42,32l-6 2 -2 8c0,2 0,36 14,78 12,36 38,84 92,118l0 0zm28 -71l0 -41 -42 0 0 -26 42 0 0 -42 26 0 0 42 42 0 0 26 -42 0 0 41 -26 0zm110 -103c-14,-4 -26,-12 -32,-20 -12,-16 -14,-34 -14,-36l0 0c-2,0 -8,-2 -18,-4 -10,0 -24,-2 -34,-2 -10,0 -22,2 -32,2 -10,2 -18,4 -20,4 0,2 0,20 -12,36 -8,8 -18,16 -32,20 0,2 0,12 2,30l0 0c2,8 4,20 8,30 6,18 16,38 34,58 12,16 30,29 52,42 28,-14 46,-32 60,-48 14,-18 22,-36 28,-52 4,-12 6,-22 8,-30 2,-18 2,-28 2,-30l0 0z"/>
  <path class="fil26" d="M5255 3039l492 0 0 -24 -492 0 0 24zm-16 -184l0 0c-2,-22 18,-32 34,-44 10,-8 20,-2 28,8 8,10 16,8 26,-2 42,-42 86,-86 130,-130 10,-8 8,-14 0,-24 -16,-18 -14,-26 12,-50 14,-16 26,-16 42,0 16,18 34,36 52,54 16,14 28,32 24,56 0,4 -2,10 4,14 6,2 8,-4 12,-6 2,-2 2,-2 4,-4 10,-6 14,-24 30,-14 6,2 8,10 4,16 -10,10 -16,30 -36,22 -4,-2 -8,-2 -14,-4 -2,22 10,40 14,58 6,26 0,46 -18,64 -24,26 -50,50 -74,76 -24,24 -50,30 -80,18 -14,-4 -28,-12 -48,-12 12,22 4,36 -12,48 -8,6 -14,8 -22,2 -6,-6 -4,-14 2,-20 8,-10 26,-16 22,-28 -4,-12 -22,-2 -34,-4 -30,-10 -50,-34 -68,-56 -20,-28 -32,-24 -34,-38l0 0zm246 -10l0 0c-12,12 -26,24 -38,36 -12,14 -24,26 -38,40 -4,6 -12,10 -4,18 22,20 74,20 96,0 20,-20 40,-42 62,-62 32,-26 38,-56 22,-94 -12,-26 -10,-26 -32,-6 -22,24 -44,46 -68,68l0 0zm-62 -60l0 0c-8,10 -16,18 -26,26 -8,8 -10,14 0,22 8,8 14,14 24,2 16,-18 34,-34 52,-52 8,-8 10,-14 2,-24 -10,-10 -16,-8 -26,0 -8,10 -16,18 -26,26l0 0zm122 -90l0 0c-14,-12 -28,-12 -40,-2 -12,10 -12,34 0,42 14,12 28,12 40,-2 12,-12 12,-26 0,-38l0 0zm-172 210l0 0c12,-12 14,-26 2,-38 -12,-14 -30,-14 -42,-2 -12,12 -12,28 0,40 12,12 26,14 40,0l0 0zm238 -2l-10 36 30 20c2,0 2,4 2,6 -2,0 -2,0 -4,0l-36 2 -10 36c0,2 -2,4 -4,2 -2,0 -2,0 -4,-2l-12 -34 -36 2c-2,0 -4,-2 -4,-4 0,-2 0,-2 2,-4l28 -22 -6 -12 8 -6 6 18c0,2 0,4 -2,4l-22 18 28 -2c2,0 4,0 4,2l10 26 8 -26c0,-2 2,-2 2,-4l28 0 -22 -16c-2,0 -2,-2 -2,-4l8 -26 -22 18c-2,0 -4,0 -4,0l-16 -10 6 -6 10 8 30 -24c2,0 4,0 4,0 2,2 2,4 2,4l0 0z"/>
  <path class="fil26" d="M5698 6084l0 -88c0,-6 -6,-12 -12,-12l-44 0c-8,0 -12,6 -12,12l0 38c-18,-16 -36,-32 -54,-48 -6,-6 -10,-6 -16,0 -58,52 -116,102 -176,154 -2,4 -8,8 -12,10l30 0 0 14c0,2 0,4 0,6 0,54 0,106 0,160 0,8 2,8 10,8 30,0 62,0 92,0 8,0 8,-2 8,-8 0,-26 0,-54 0,-80 2,-16 10,-24 24,-24 14,0 28,0 42,0 24,0 32,6 34,30 28,-12 44,-32 32,-76l0 0c-2,-8 -4,-16 -4,-22 0,-18 6,-34 16,-46 10,-14 22,-22 38,-28 2,0 4,0 4,0l0 0zm16 98l8 0 0 -4 14 0 -14 12c0,-2 0,-2 0,-4l-8 0c0,6 -2,12 -6,14 -2,2 -8,2 -10,2 -4,0 -8,0 -12,-2 -4,-4 -6,-16 -6,-20l0 -2 32 0c2,0 2,0 2,0l0 4zm44 -24l0 0c-2,-4 -4,-10 -2,-14 0,0 -40,22 -52,22 0,0 24,-12 28,-22 -12,8 -38,22 -46,22 0,0 12,-8 14,-12 -28,6 -26,28 -28,50 0,0 -6,-26 -8,-30 -10,-40 16,-70 54,-70 32,-2 52,14 56,38l-16 16zm104 -68l0 0 18 20 -314 294 -20 -18 316 -296zm-194 248l166 0c0,-70 -24,-60 -74,-84l-92 84z"/>
  <path class="fil26" d="M2269 6552l0 -9 24 0c-14,-13 -26,-25 -40,-36l0 -68c0,-4 -4,-8 -8,-8l-30 0c-4,0 -8,4 -8,8l0 25c-12,-9 -24,-22 -36,-31 -4,-5 -6,-5 -12,0 -38,33 -78,67 -118,104 -2,1 -4,3 -8,6l20 0 0 9c0,0 0,2 0,4 0,36 0,70 0,106 0,6 2,6 8,6 20,0 40,0 62,0 4,0 6,0 6,-6 -2,-18 -2,-36 0,-53 0,-11 4,-15 16,-17 8,0 18,0 28,0 16,0 22,6 22,24 0,16 0,32 -2,48 0,4 2,4 6,4 21,0 43,0 62,0 5,0 6,0 8,-4l0 -24c0,-28 0,-58 0,-88l0 0zm118 174c-4,-8 -18,-14 -33,-12 -5,0 -11,2 -14,2 -21,6 -120,42 -123,42l-2 0 2 2c12,10 18,20 14,28 -4,12 -20,20 -46,22 -24,2 -56,0 -90,-6 2,0 8,0 12,0 26,0 50,0 68,-2 30,-2 45,-8 46,-20 0,-6 -4,-12 -14,-18 -12,-4 -34,-8 -56,-12 -16,-2 -30,-4 -40,-6 -34,-10 -70,-20 -112,-16 -6,2 -14,2 -19,4 -33,4 -65,12 -97,22l-4 0 48 70c10,-2 18,-4 26,-4 12,-2 24,0 34,0 14,2 46,10 80,16 32,8 64,14 76,16 8,0 14,0 20,0 16,-2 34,-10 50,-18 4,-4 10,-6 14,-8l144 -78c19,-10 19,-18 16,-24l0 0z"/>
  <path class="fil27" d="M1667 6077l0 0 41 72c8,12 23,16 38,8l262 -150c14,-8 18,-26 12,-38l-42 -69c30,-18 -2,-74 -32,-56l-39 -68c-2,-4 -5,-4 -9,-2l-14 8c-4,2 -8,2 -10,-2l-30 -54c-3,-2 -6,-4 -11,-2l-31 20c-5,2 -5,6 -5,8l33 54c2,4 0,6 -4,10l-156 90c-5,1 -8,0 -11,-3l-30 -53c-1,-2 -7,-4 -9,-2l-33 20c-3,2 -5,6 -3,8l30 53c1,3 1,7 -3,9l-11 8c-5,1 -5,5 -5,9l41 69c-30,15 1,72 31,53l0 0zm268 27l-19 0 0 -8 22 0 -3 8zm-69 41l0 0 -8 -4 10 -18 8 2 -10 20zm50 -4l0 0 -9 4 -9 -18 7 -4 11 18zm-39 -28l0 0c5,6 13,8 21,5 7,-5 9,-14 6,-21l-13 -18 -25 14 11 20zm-241 -148l0 0c8,15 23,18 37,11 14,-11 21,-26 13,-40 -8,-12 -24,-17 -39,-8 -14,8 -19,26 -11,37l0 0zm213 -123l0 0c9,12 27,16 41,8 14,-8 20,-24 12,-38 -9,-12 -26,-16 -40,-8 -15,8 -18,24 -13,38l0 0zm113 87l0 0c2,3 0,7 -2,11l-249 141c-3,2 -8,0 -9,-2l-40 -72c-3,-4 -3,-8 2,-10l248 -141c1,-2 6,-2 8,2l42 71zm-387 280l509 0 0 -24 -509 0 0 24zm470 -192l0 0 -9 36 31 20c3,2 3,4 0,6l-1 2 -38 2 -10 36c0,2 -4,2 -4,2 -2,0 -4,-2 -4,-2l-14 -36 -36 2c-3,0 -4,-2 -4,-4 -2,0 0,-2 0,-4l30 -22 -4 -14 6 -4 5 18c3,0 0,2 0,4l-22 18 29 -2c1,0 1,2 4,2l10 28 6 -28c2,-2 2,-2 3,-2l31 -2 -25 -16c-1,0 -3,-2 -1,-4l8 -28 -24 18c0,2 -2,2 -4,0l-16 -10 8 -4 10 6 30 -24c2,0 4,0 5,2 0,0 0,2 0,4l0 0zm-110 10l-135 78 -20 -36 136 -78 19 36z"/>
  <path class="fil26" d="M1054 5997l0 0c-28,-24 -54,-47 -86,-76 -2,-4 -4,-4 -8,-4 -2,0 -6,0 -8,4l-196 176c-2,2 -4,6 -4,8 0,2 2,6 4,6 6,6 12,6 18,0l186 -168 84 74c3,-6 7,-14 10,-20l0 0zm184 -6l0 0 18 20 -316 296 -18 -20 316 -296zm-152 116l-2 0c-4,-4 -6,-20 -6,-24l0 -2 36 0 -28 26zm64 32l0 0c3,0 4,0 4,-2l2 -2c2,2 0,6 -2,8 -1,0 -1,2 -4,2 -1,0 -4,0 -5,0l5 -6zm-5 -86l0 0c-14,6 -31,14 -39,14 0,0 30,-14 34,-26 -13,10 -46,26 -54,24 0,0 12,-8 14,-14 -31,8 -30,34 -31,60 0,0 -7,-30 -9,-36 -13,-46 20,-82 64,-82 29,-2 47,8 58,24l-37 36zm-135 218l250 0c0,-88 -32,-70 -100,-106 -10,10 -24,16 -37,16 -7,0 -10,0 -15,-2l-98 92zm-7 -88c-3,-2 -7,-6 -10,-6l-62 0c-7,0 -13,6 -13,12l0 60 -84 0 0 -142c0,-8 -5,-12 -12,-12 -8,0 -12,4 -12,12l0 154c0,4 4,10 12,10l88 0 32 -30 0 -42 34 0c8,-6 17,-12 27,-16l0 0z"/>
  <path class="fil28" d="M381 4619l0 0zm0 0l0 0c-2,0 -2,0 0,0l0 0zm0 0l0 0zm134 18l0 0c-16,38 -18,42 -40,56 2,-20 10,-40 4,-61 -4,-9 -6,-19 -10,-29 -8,-22 -14,-22 -30,-2 -28,40 -26,100 6,142 4,3 8,8 10,17 -34,0 -64,-9 -86,-33 -30,-36 -26,-78 -18,-122 12,6 14,16 20,24 8,10 14,10 20,-2 8,-16 6,-30 0,-44 -10,-24 -6,-46 2,-68 12,-32 32,-60 56,-84 2,-4 6,-10 12,-8 6,2 2,8 4,12 0,20 10,34 20,50 20,30 34,62 20,98 16,-10 20,-18 32,-54 26,32 40,66 26,108 16,-8 20,-22 26,-36 40,68 -16,156 -106,161 40,-35 46,-75 32,-125l0 0zm-100 -194l0 -54c0,-6 -4,-12 -12,-12l-44 0c-6,0 -12,6 -12,12l0 36c-16,-14 -34,-30 -52,-46 -6,-6 -10,-6 -16,0 -58,50 -114,100 -172,150 -4,4 -8,8 -12,12l28 0 0 12c0,2 2,4 2,8 0,52 0,104 -2,155 0,7 4,8 10,8 30,0 60,0 92,0 6,0 8,-1 8,-8 0,-25 0,-51 0,-79 0,-14 8,-22 24,-22 14,0 26,0 40,0 24,0 32,6 32,30 2,-14 4,-28 6,-44l4 -24 22 14c10,6 14,14 18,22l0 0c0,-4 2,-6 2,-8 0,-6 -2,-10 -4,-16 -6,-14 -8,-28 -8,-42 2,-12 4,-26 10,-38 6,-16 14,-32 24,-48 4,-6 8,-12 12,-18l0 0z"/>
  <path class="fil26" d="M1478 590l-104 0c0,-14 -10,-24 -24,-24l0 -110c14,0 24,-10 24,-22l106 0 0 -18 -148 0 0 192 142 0 4 -18zm118 -156l106 0c0,12 10,22 24,22l0 110c-14,0 -24,10 -24,24l-106 0 0 18 148 0 0 -192 -148 0 0 18zm-188 78l0 0c0,14 12,26 26,26 14,0 26,-12 26,-26 0,-14 -12,-26 -26,-26 -14,0 -26,12 -26,26l0 0zm262 0l0 0c0,-14 -14,-26 -28,-26 -14,0 -26,12 -26,26 0,14 12,26 26,26 14,0 28,-12 28,-26l0 0zm-126 34l0 0c2,-2 6,-4 8,-6 2,-2 2,-6 2,-8 0,-4 0,-6 -2,-8 -2,-2 -4,-4 -8,-6l0 28zm-10 -74l0 0c-4,0 -6,2 -8,4 0,2 -2,6 -2,8 0,2 2,4 2,6 2,2 4,4 8,6l0 -24zm0 72l0 -28c-10,-4 -16,-6 -20,-12 -4,-6 -6,-12 -6,-20 0,-6 2,-14 6,-18 6,-6 12,-8 20,-10l0 -6 10 0 0 6c6,2 12,4 16,8 6,4 8,10 10,16l-18 4c-2,-6 -4,-10 -8,-12l0 26c10,4 18,8 22,12 4,6 6,12 6,18 0,10 -2,16 -8,22 -4,6 -12,10 -20,10l0 14 -10 0 0 -14c-8,0 -16,-2 -20,-8 -4,-4 -8,-12 -10,-20l18 -4c2,4 2,8 4,10 2,4 6,6 8,6l0 0zm-44 -132l96 0 0 200 -96 0 0 -200zm302 278c-4,-8 -18,-12 -34,-12 -4,0 -10,2 -14,4 -20,6 -120,40 -122,40l-2 2 2 0c12,10 18,20 14,28 -4,14 -20,20 -46,22 -24,2 -56,0 -90,-6 2,0 8,0 12,0 26,0 50,0 68,0 30,-4 44,-10 46,-20 0,-8 -4,-14 -14,-18 -12,-6 -34,-10 -56,-14 -16,-2 -30,-4 -40,-6 -34,-10 -70,-18 -112,-16 -6,2 -14,2 -20,4 -32,6 -64,12 -96,22l-4 0 48 70c10,-2 18,-2 26,-4 12,0 24,0 34,2 14,2 46,8 78,14 34,8 66,14 78,16 8,0 14,0 20,0 16,-2 34,-10 50,-18 4,-4 10,-6 14,-8l144 -78c16,-10 16,-18 16,-24l0 0z"/>
  <path class="fil26" d="M7319 2869l0 0c-8,-2 -12,-8 -10,-14 0,0 2,-10 -8,-18l-14 -14 -14 14 10 8c10,8 10,24 2,32 0,0 0,0 0,2 -34,36 -76,50 -120,40 -31,-8 -56,-24 -76,-40l-18 20 63 58c7,4 7,10 3,14 -4,6 -13,6 -16,2l-144 -130c-5,-4 -5,-10 0,-16 4,-4 10,-4 14,0l63 56 19 -18c-19,-16 -29,-30 -30,-30 -4,-6 -7,-16 -2,-24l17 -40 -84 -100 -72 -4c-4,0 -8,14 -11,18 -2,2 -4,4 -7,6 -5,8 -13,12 -23,12 -9,0 -18,-2 -26,-10 -6,-6 -10,-16 -13,-24 0,-10 4,-18 10,-26 7,-8 16,-12 25,-12 10,0 19,2 26,10 1,2 4,4 6,6l34 -38c7,-10 22,-10 32,-2l125 114 53 -2c5,0 12,2 16,6l29 26 13 -14 -35 -30c-3,-4 -3,-12 0,-16 4,-6 11,-6 17,-2l143 130c15,14 17,32 15,40 -2,6 -6,10 -12,10l0 0zm-141 -30l0 0 -44 50c31,24 69,22 97,-4l-53 -46zm-10 -10l0 0 -47 -44c-41,26 -41,62 2,94l45 -50zm-307 -140l0 0c-7,0 -13,-2 -17,-6 -4,-4 -8,-10 -8,-14 0,-6 3,-12 7,-16 4,-4 9,-8 15,-8 4,0 11,2 14,6 7,4 8,10 8,16 0,4 -1,10 -5,14 -4,4 -10,8 -14,8l0 0zm69 214l0 0 15 32 -25 22c-1,2 -1,4 0,6 0,0 0,0 3,0l33 -4 15 32c1,2 1,2 3,2 3,-2 3,-2 3,-4l8 -32 33 -4c3,0 3,-2 3,-4 0,-2 0,-2 -3,-4l-29 -16 3 -12 -7 -4 -3 18c0,0 0,2 3,2l22 14 -26 2c-3,0 -3,2 -3,4l-6 24 -9 -22c-3,-2 -3,-4 -4,-2l-26 2 17 -18c2,0 2,-2 2,-4l-10 -22 22 12c0,0 3,0 5,0l12 -12 -7 -4 -10 8 -30 -16c0,-2 -4,0 -4,2l0 2zm357 120l-458 0 0 -22 458 0 0 22zm-78 -270l-13 14 59 54 12 -14 -58 -54z"/>
  <path class="fil26" d="M7116 3818l0 0c18,0 36,0 52,2 22,0 38,14 38,36 0,36 0,70 0,106 0,8 -2,12 -12,10 -34,0 -70,0 -106,0 -6,2 -10,-2 -12,-8 -24,-54 -66,-82 -124,-82 -56,-2 -98,28 -122,82 -4,6 -8,10 -16,8 -34,0 -68,0 -104,0 -10,2 -12,-2 -12,-12 2,-34 0,-68 2,-102 0,-24 14,-38 38,-38 34,-2 68,-2 100,0 14,0 18,-6 16,-18 0,-10 0,-20 0,-30 2,-22 16,-36 38,-36 40,0 80,0 122,0 22,0 36,16 36,38 2,14 -6,34 4,42 10,8 30,2 44,2 6,0 12,0 18,0l0 0zm-164 384l0 0c-70,0 -138,0 -208,0 -32,0 -44,-14 -44,-44 -2,-44 0,-86 -2,-130 0,-12 4,-14 16,-14 30,0 60,0 90,0 10,0 16,2 16,14 8,68 66,118 132,118 68,2 126,-50 132,-120 2,-8 4,-12 14,-12 32,0 64,0 96,0 8,0 12,2 12,12 0,46 0,92 0,138 0,24 -16,38 -40,38 -72,0 -142,0 -214,0l0 0zm-16 -126l0 -46 -46 0 0 -32 46 0 0 -46 32 0 0 46 46 0 0 32 -46 0 0 46 -32 0zm16 -258c16,0 32,0 50,2 8,0 12,-2 12,-12 -2,-4 0,-10 0,-14 0,-12 -4,-18 -18,-18 -30,2 -58,0 -88,0 -12,0 -18,4 -16,16 0,4 0,10 0,14 -2,10 4,14 12,14 16,-2 32,-2 48,-2l0 0z"/>
  <path class="fil26" d="M6149 1322l0 0 -6 3c-8,0 -14,-3 -18,-9 -6,-6 -6,-15 -6,-18l0 -127c0,0 4,-28 34,-48l-4 199zm170 -217l0 0c-2,0 -2,0 -3,0l73 0c4,0 101,0 107,78l0 187c0,16 -15,28 -31,28 -14,0 -28,-12 -28,-28l0 -205 -13 0 0 245 -217 0 0 -76 106 0c20,0 36,-15 36,-36 0,-17 -16,-34 -36,-34l-26 0 -46 -159 75 0c-3,0 -3,0 -5,0l8 0zm-158 217l0 0 4 -205c8,-2 30,-10 64,-12l46 167c10,21 18,44 14,50 -2,0 -2,0 -2,0l-126 0zm130 -46l22 0c14,0 24,10 24,22 0,14 -10,24 -24,24l-12 0c2,-12 -6,-33 -10,-46l0 0zm28 -195l-8 0c-48,0 -86,-40 -86,-88 0,-50 40,-90 91,-90 50,0 89,40 89,90 0,48 -38,88 -86,88l0 0z"/>
  <path class="fil26" d="M1657 3582l0 0c-2,-6 -14,-10 -28,-10 -2,2 -6,2 -10,4 -16,4 -98,32 -100,32l-2 2 2 0c10,8 14,16 12,24 -2,10 -16,16 -38,18 -20,2 -46,0 -74,-6 2,0 6,0 10,0 20,0 40,0 56,0 24,-2 36,-8 36,-18 2,-6 -2,-10 -10,-14 -10,-4 -28,-6 -46,-10 -12,-2 -24,-4 -32,-6 -28,-6 -58,-14 -92,-12 -6,0 -10,2 -16,2 -26,4 -52,10 -78,18l-4 2 40 56c6,-2 14,-2 22,-2 8,-2 18,-2 26,0 10,2 38,6 64,12 28,6 54,12 64,12 6,2 10,2 16,2 14,-2 28,-10 40,-16 4,-2 8,-4 12,-8l118 -62c14,-8 14,-16 12,-20l0 0zm-486 22l52 0c2,0 6,2 8,6l50 72c2,2 0,4 -2,4l-52 0c-2,0 -6,-2 -8,-4l-50 -72c-2,-4 0,-6 2,-6l0 0zm196 -270l0 0c14,0 28,12 26,28 0,14 -14,26 -28,24 -14,0 -26,-12 -24,-28 0,-14 12,-26 26,-24l0 0zm182 -118l0 0c0,20 -18,36 -38,36 -20,0 -36,-16 -36,-38 0,-20 16,-36 38,-34 20,0 36,16 36,36l0 0zm-84 108c-4,6 -8,10 -10,14 -12,28 -32,48 -54,68 -6,6 -8,12 -8,20 0,36 0,72 0,108 0,6 2,14 -8,16 -10,0 -14,-8 -14,-16 2,-18 2,-36 2,-54 -2,-4 2,-12 -6,-12 -8,0 -6,8 -6,12 0,18 0,34 0,52 0,8 2,18 -10,18 -12,-2 -10,-10 -10,-18 0,-32 0,-64 0,-98 0,-4 2,-10 -8,-20 0,16 2,28 0,38 0,8 2,14 -8,14 -8,0 -8,-6 -8,-12 0,-14 0,-26 0,-38 0,-14 6,-22 22,-22 12,2 22,0 34,0 20,0 28,-6 38,-26 18,-34 38,-68 62,-98 6,-10 16,-16 26,-4 8,6 18,6 26,-2 8,-8 16,-4 24,4 10,8 16,20 22,32 12,18 24,36 34,56 6,8 12,18 0,24 -10,8 -14,-4 -18,-12 -10,-14 -20,-30 -30,-42 6,22 14,46 20,70 6,20 4,26 -18,24 -12,0 -14,4 -14,14 0,30 0,62 0,92 0,10 0,22 -14,22 -14,0 -12,-12 -12,-22 0,-30 0,-58 -2,-88 0,-6 6,-16 -6,-16 -10,0 -6,10 -6,14 0,32 0,62 0,92 0,10 0,18 -10,20 -14,2 -16,-6 -16,-16 0,-32 -2,-64 0,-94 0,-14 -4,-18 -16,-18 -20,2 -22,-4 -18,-22 8,-24 14,-48 22,-72 -2,0 -2,0 -2,-2l0 0z"/>
  <path class="fil29" d="M425 2477l0 0c7,0 14,-3 21,-3 25,-8 50,-4 72,3 18,4 18,4 18,-11 3,-42 17,-81 32,-121 18,-43 39,-78 71,-107 4,-3 7,-7 11,-10 -4,-4 -7,0 -11,0 -107,21 -193,117 -210,224 0,0 0,4 -4,4 0,7 0,14 0,21l0 0zm310 -321l0 0c15,11 0,39 8,54 3,7 18,7 25,11 28,10 46,32 64,57 35,49 53,107 64,167 0,7 4,18 4,25 0,7 0,11 -8,7 -46,-14 -92,-25 -139,-28 -39,-4 -75,3 -114,10 -21,4 -43,11 -64,18 -11,4 -14,0 -14,-11 3,-17 7,-35 10,-53 11,-53 29,-103 65,-142 17,-22 35,-43 60,-54 25,-7 25,-7 25,-32 0,-11 -3,-22 4,-29 3,0 7,0 10,0l0 0zm197 514l0 0c-25,3 -47,25 -47,53 4,25 25,47 50,47 29,-4 47,-25 47,-54 0,-25 -22,-46 -50,-46l0 0zm-418 60l0 0c22,4 39,22 39,47 0,17 -21,39 -42,35 -22,0 -40,-18 -36,-42 0,-22 18,-40 39,-40l0 0zm275 -174l0 0c0,28 -25,53 -54,53 -32,0 -57,-25 -57,-57 0,-32 25,-53 57,-53 29,0 54,24 54,57l0 0zm-128 164l0 0c-4,7 -8,14 -11,21 -22,39 -50,71 -82,103 -11,7 -15,18 -15,29 0,53 0,110 0,164 0,10 4,21 -14,25 -14,0 -18,-11 -18,-25 0,-25 0,-54 0,-79 0,-7 4,-21 -7,-21 -11,0 -7,11 -7,18 0,25 0,53 0,78 0,14 0,29 -18,29 -18,-4 -14,-15 -14,-29 0,-50 0,-96 0,-146 0,-7 0,-18 -11,-32 0,25 0,43 0,57 0,11 0,25 -14,25 -14,-4 -11,-14 -11,-21 -3,-22 0,-39 0,-57 0,-22 7,-36 32,-33 18,0 36,0 54,0 28,0 43,-10 57,-38 25,-54 57,-108 93,-154 10,-11 25,-21 43,-7 10,11 25,11 35,0 15,-14 25,-7 36,4 18,14 25,31 39,49 15,29 32,57 50,86 0,0 4,4 4,7 10,7 21,11 43,11 17,0 39,0 60,0 29,-4 40,10 40,35 0,22 0,47 0,68 0,11 0,25 -15,25 -17,0 -17,-14 -17,-25 0,-21 0,-43 0,-68 -15,15 -11,25 -11,36 0,57 0,118 0,175 0,14 3,28 -18,32 -22,0 -22,-18 -22,-32 0,-32 0,-64 0,-93 0,-7 4,-21 -7,-21 -14,0 -10,14 -10,21 0,32 0,64 0,96 0,14 -4,29 -22,29 -18,-4 -18,-18 -18,-29 0,-64 0,-128 0,-192 0,-40 -18,-25 -36,-53 -14,-22 -31,-51 -46,-68 11,35 22,71 32,106 8,33 4,40 -28,40 -18,0 -21,3 -21,21 0,46 0,93 0,139 0,14 0,32 -22,32 -21,0 -21,-18 -21,-32 0,-46 3,-89 0,-135 0,-8 7,-25 -8,-25 -17,0 -10,14 -10,25 0,46 0,92 0,139 0,14 -4,25 -18,28 -18,4 -22,-11 -22,-25 -3,-46 -3,-96 0,-142 0,-22 -7,-29 -28,-25 -25,0 -32,-7 -25,-36 11,-36 21,-71 32,-107 0,-3 0,-3 -3,-3l0 0zm364 -243c-8,0 -11,-3 -18,-3 -25,-8 -50,-4 -75,3 -15,4 -15,4 -15,-11 -7,-42 -17,-81 -32,-121 -18,-43 -39,-78 -75,-107 -3,-3 -7,-7 -7,-10 4,-4 7,0 11,0 103,21 193,117 211,224l0 4c0,7 0,14 0,21l0 0z"/>
  <path class="fil27" d="M3477 379l0 0c6,6 0,18 4,26 2,4 8,2 12,4 12,8 22,18 30,28 18,24 26,54 32,82 0,4 2,8 2,12 0,4 0,6 -4,4 -22,-8 -44,-12 -68,-14 -18,-2 -37,2 -54,6 -12,2 -22,4 -32,8 -6,2 -6,0 -6,-4 0,-10 2,-18 4,-26 6,-26 14,-50 32,-72 8,-10 16,-20 30,-24 10,-4 10,-4 10,-16 0,-4 -2,-10 4,-14 0,0 2,0 4,0l0 0zm142 156l0 0c-4,0 -6,-2 -10,-2 -12,-2 -24,-2 -36,2 -8,2 -8,2 -8,-6 -2,-20 -8,-40 -16,-58 -8,-20 -18,-38 -34,-52 -2,-2 -4,-2 -6,-6 2,0 4,0 6,0 50,12 94,58 102,110 0,0 0,2 2,2 0,4 0,6 0,10l0 0zm-146 170l0 0c46,0 94,0 142,0 20,0 28,-4 18,-24 -10,-16 -16,-34 -22,-50 -8,-20 -22,-28 -44,-28 -48,2 -96,0 -144,2 -92,0 -72,-12 -110,72 0,2 0,4 -2,6 -10,18 -2,22 16,22 48,0 96,0 146,0l0 0zm-160 52l78 0c4,0 6,4 6,6l0 20c0,4 -2,6 -6,6l-78 0c-2,0 -6,-2 -6,-6l0 -20c0,-2 4,-6 6,-6l0 0zm244 0l78 0c2,0 6,4 6,6l0 20c0,4 -4,6 -6,6l-78 0c-2,0 -6,-2 -6,-6l0 -20c0,-2 4,-6 6,-6l0 0zm-84 -166l0 0c32,0 64,0 96,0 26,0 44,10 54,34 2,8 8,16 10,24 6,26 22,34 48,30 10,0 26,-4 26,18 0,18 -6,22 -22,22 -16,-2 -14,10 -14,18 0,42 -2,82 0,122 0,20 -6,28 -26,26 -8,0 -18,0 -28,0 -26,4 -42,-2 -36,-34 2,-12 -6,-14 -16,-14 -62,0 -124,0 -184,0 -16,0 -18,8 -16,20 2,20 -6,30 -28,28 -76,-2 -62,10 -64,-62 0,-28 0,-58 2,-86 0,-12 -4,-20 -18,-18 -18,2 -20,-10 -20,-24 0,-16 10,-18 20,-16 36,8 48,-12 60,-40 16,-44 24,-48 72,-48 28,0 56,0 84,0l0 0zm-146 -56c2,0 6,-2 8,-2 12,-2 24,-2 36,2 8,2 8,2 10,-6 2,-20 6,-40 14,-58 8,-20 20,-38 36,-52 2,-2 4,-2 4,-6 -2,0 -4,0 -6,0 -50,12 -94,58 -102,110l0 2c0,4 0,6 0,10l0 0z"/>
  <path class="fil26" d="M1152 1257l0 0c-25,30 -59,60 -77,78 -12,10 -39,36 -44,36 -6,0 -31,-24 -43,-36l-1 0c-18,-16 -54,-46 -81,-78l76 0c3,0 5,0 5,-2l5 -14 11 54c1,2 4,4 6,4 1,0 4,-2 4,-6l9 -66 6 44c0,2 3,4 7,4 1,0 4,-2 4,-4l8 -18 7 26c3,2 4,4 7,4 2,0 4,-2 4,-4l11 -22 76 0zm33 -54l0 0c-2,14 -11,28 -24,44l-89 0c-1,0 -1,2 -4,4l-7 14 -8 -28c-3,-2 -4,-4 -6,-4 -2,0 -4,2 -4,4l-7 14 -9 -58c0,-2 -2,-4 -5,-4l-1 0c-3,0 -4,2 -4,4l-10 68 -7 -36c0,-2 -1,-4 -4,-4 -1,0 -4,0 -5,2l-13 24 -79 0c-15,-16 -23,-32 -24,-44 -7,-26 -3,-46 9,-62 13,-14 32,-22 61,-26 3,0 6,0 7,0 25,0 51,10 65,28 4,4 8,6 11,6 7,0 11,-2 15,-6 14,-18 40,-28 64,-28 1,0 4,0 5,0 31,4 51,12 62,26 13,16 17,36 11,62l0 0zm47 198c-1,-8 -17,-14 -33,-12 -4,0 -8,2 -12,4 -20,6 -122,40 -122,40l-2 2 2 0c10,10 15,20 14,28 -4,13 -21,19 -48,22 -24,1 -54,0 -90,-7 4,0 7,0 11,0 26,0 51,0 70,-2 28,-2 43,-7 45,-17 1,-8 -2,-14 -14,-18 -10,-6 -32,-11 -54,-14 -17,-2 -30,-4 -40,-6 -36,-10 -72,-18 -113,-16 -7,2 -14,2 -19,4 -32,4 -64,12 -97,21l-4 0 48 70c8,-1 18,-4 26,-4 13,-1 22,0 35,0 11,4 45,11 77,17 35,7 66,13 79,16 5,0 13,0 19,0 17,-3 35,-11 48,-18 7,-4 13,-7 17,-8l143 -78c17,-10 17,-18 14,-24l0 0z"/>
  <path class="fil30" d="M6367 5495l0 0 79 16 10 -16 -45 -30 -44 30zm-171 146l0 0 -12 32 26 21c1,0 1,3 0,4 0,3 -3,3 -3,3l-33 -3 -12 30c-3,2 -5,4 -5,4 -2,-2 -2,-2 -4,-4l-8 -31 -34 -3c-2,0 -2,-1 -2,-4 0,-1 0,-1 2,-1l29 -18 -5 -14 6 -2 4 16c2,2 0,2 0,4l-22 14 26 0c0,0 3,1 3,4l5 23 10 -23c0,0 2,-3 4,-3l26 3 -20 -17c-2,-1 -2,-1 -2,-3l10 -24 -22 14c0,0 -1,0 -4,0l-12 -12 6 -4 9 8 29 -18c0,-2 2,0 5,2l0 2zm207 127l-455 0 0 -21 455 0 0 21zm0 -309c12,-8 -85,4 -105,14 0,0 -153,98 -220,142 -19,12 -35,24 -53,36 -11,6 -32,34 -24,46 6,11 38,4 50,-4 42,-26 84,-54 126,-82l179 20 11 -22 -90 -64c41,-28 115,-78 126,-86l0 0z"/>
  <path class="fil31" d="M6509 4710l0 0c-6,0 -17,-3 -23,-7 -31,-3 -62,-3 -96,7 -17,3 -21,3 -21,-14 -6,-54 -20,-106 -41,-156 -20,-52 -51,-100 -92,-137 -7,-4 -10,-7 -10,-14 3,-3 7,0 10,0 137,31 250,151 270,287 3,3 3,7 3,10 0,7 0,14 0,24l0 0zm-768 0l0 0c7,0 14,-3 24,-7 30,-3 61,-3 95,7 17,3 17,3 21,-14 7,-54 21,-106 41,-156 20,-52 51,-100 92,-137 4,-4 10,-7 10,-14 -3,-3 -6,0 -13,0 -134,31 -246,151 -270,287 0,3 0,7 0,10 0,7 0,14 0,24l0 0zm194 331l0 0 48 -7c4,31 7,51 17,65 11,10 28,17 45,17 13,0 24,-3 34,-10 10,-7 17,-14 20,-24 4,-10 4,-27 4,-51l0 -280 54 0 0 277c0,33 -3,57 -10,78 -10,17 -24,30 -41,41 -17,10 -37,17 -61,17 -34,0 -62,-10 -82,-31 -17,-20 -28,-51 -28,-92l0 0zm206 -744c13,14 0,52 6,68 7,11 21,7 31,14 34,17 62,45 82,72 48,65 68,139 82,218 3,10 3,21 7,34 0,7 0,10 -10,7 -59,-20 -120,-31 -178,-34 -51,-7 -99,0 -147,10 -31,7 -58,14 -85,24 -14,3 -14,0 -14,-10 0,-24 7,-48 10,-72 17,-68 38,-133 82,-188 24,-27 48,-51 82,-64 28,-11 28,-11 28,-41 0,-14 -4,-28 6,-38 7,0 10,0 18,0l0 0z"/>
 </g>
</svg>
